<svg width="130" height="40" viewBox="0 0 130 40" fill="none" xmlns="http://www.w3.org/2000/svg">
<rect width="130" height="40" rx="8" fill="#0C0D10"/>
<path d="M29.7973 20.2381C29.819 18.5571 30.7217 16.9665 32.1539 16.086C31.2504 14.7957 29.7371 13.9776 28.1627 13.9283C26.4835 13.7521 24.8555 14.9332 23.9998 14.9332C23.1275 14.9332 21.81 13.9458 20.3913 13.975C18.5421 14.0348 16.8181 15.0862 15.9184 16.7029C13.9844 20.0513 15.427 24.9724 17.2796 27.679C18.2065 29.0043 19.2898 30.4848 20.7072 30.4323C22.0943 30.3747 22.6123 29.5478 24.2866 29.5478C25.9454 29.5478 26.4314 30.4323 27.8776 30.3989C29.366 30.3747 30.3038 29.0677 31.1981 27.7298C31.8641 26.7854 32.3766 25.7417 32.7166 24.6372C30.9674 23.8975 29.7994 22.1372 29.7973 20.2381Z" fill="white"/>
<path d="M27.0656 12.1483C27.8772 11.1741 28.277 9.92195 28.1802 8.65771C26.9403 8.78794 25.7951 9.38049 24.9726 10.3173C24.1683 11.2327 23.7497 12.4628 23.8289 13.6787C25.0692 13.6915 26.2885 13.115 27.0656 12.1483Z" fill="white"/>
<path d="M40.7166 7.29468V13.2837H42.8789C44.6636 13.2837 45.697 12.1838 45.697 10.2705C45.697 8.38623 44.6553 7.29468 42.8789 7.29468H40.7166ZM41.6462 8.14136H42.7751C44.0161 8.14136 44.7507 8.92993 44.7507 10.283C44.7507 11.6567 44.0286 12.437 42.7751 12.437H41.6462V8.14136Z" fill="white"/>
<path d="M48.8621 13.3708C50.1819 13.3708 50.9913 12.4868 50.9913 11.0217C50.9913 9.56494 50.1778 8.67676 48.8621 8.67676C47.5423 8.67676 46.7288 9.56494 46.7288 11.0217C46.7288 12.4868 47.5381 13.3708 48.8621 13.3708ZM48.8621 12.5781C48.086 12.5781 47.6502 12.0095 47.6502 11.0217C47.6502 10.0422 48.086 9.46948 48.8621 9.46948C49.6341 9.46948 50.074 10.0422 50.074 11.0217C50.074 12.0054 49.6341 12.5781 48.8621 12.5781Z" fill="white"/>
<path d="M57.8834 8.76392H56.9911L56.1859 12.2129H56.1153L55.1856 8.76392H54.3307L53.401 12.2129H53.3346L52.5252 8.76392H51.6205L52.8656 13.2837H53.7828L54.7125 9.95508H54.7831L55.7169 13.2837H56.6424L57.8834 8.76392Z" fill="white"/>
<path d="M58.911 13.2837H59.8034V10.6399C59.8034 9.93433 60.2226 9.49438 60.8825 9.49438C61.5424 9.49438 61.8578 9.85547 61.8578 10.5818V13.2837H62.7501V10.3577C62.7501 9.28271 62.194 8.67676 61.1854 8.67676C60.5048 8.67676 60.0565 8.97974 59.8366 9.48193H59.7702V8.76392H58.911V13.2837Z" fill="white"/>
<path d="M64.1555 13.2837H65.0478V7H64.1555V13.2837Z" fill="white"/>
<path d="M68.4038 13.3708C69.7236 13.3708 70.533 12.4868 70.533 11.0217C70.533 9.56494 69.7195 8.67676 68.4038 8.67676C67.084 8.67676 66.2705 9.56494 66.2705 11.0217C66.2705 12.4868 67.0798 13.3708 68.4038 13.3708ZM68.4038 12.5781C67.6277 12.5781 67.1919 12.0095 67.1919 11.0217C67.1919 10.0422 67.6277 9.46948 68.4038 9.46948C69.1758 9.46948 69.6157 10.0422 69.6157 11.0217C69.6157 12.0054 69.1758 12.5781 68.4038 12.5781Z" fill="white"/>
<path d="M73.1917 12.6072C72.7061 12.6072 72.3533 12.3706 72.3533 11.9639C72.3533 11.5654 72.6355 11.3538 73.2581 11.3123L74.3621 11.2417V11.6194C74.3621 12.1797 73.8641 12.6072 73.1917 12.6072ZM72.9634 13.3584C73.5569 13.3584 74.0508 13.1011 74.3206 12.6487H74.3912V13.2837H75.2503V10.1958C75.2503 9.24121 74.6111 8.67676 73.4781 8.67676C72.4529 8.67676 71.7225 9.1748 71.6312 9.95093H72.4944C72.594 9.63135 72.9385 9.44873 73.4366 9.44873C74.0467 9.44873 74.3621 9.71851 74.3621 10.1958V10.5859L73.1377 10.6565C72.0628 10.7229 71.4568 11.1919 71.4568 12.0054C71.4568 12.8313 72.0918 13.3584 72.9634 13.3584Z" fill="white"/>
<path d="M78.2784 13.3584C78.901 13.3584 79.4281 13.0637 79.6978 12.5698H79.7684V13.2837H80.6234V7H79.7311V9.48193H79.6646C79.4198 8.98389 78.8968 8.68921 78.2784 8.68921C77.1371 8.68921 76.4024 9.59399 76.4024 11.0217C76.4024 12.4536 77.1288 13.3584 78.2784 13.3584ZM78.5316 9.49023C79.2787 9.49023 79.7477 10.0837 79.7477 11.0259C79.7477 11.9722 79.2828 12.5574 78.5316 12.5574C77.7762 12.5574 77.3238 11.9805 77.3238 11.0217C77.3238 10.0713 77.7804 9.49023 78.5316 9.49023Z" fill="white"/>
<path d="M86.4099 13.3708C87.7297 13.3708 88.539 12.4868 88.539 11.0217C88.539 9.56494 87.7255 8.67676 86.4099 8.67676C85.09 8.67676 84.2766 9.56494 84.2766 11.0217C84.2766 12.4868 85.0859 13.3708 86.4099 13.3708ZM86.4099 12.5781C85.6337 12.5781 85.1979 12.0095 85.1979 11.0217C85.1979 10.0422 85.6337 9.46948 86.4099 9.46948C87.1818 9.46948 87.6218 10.0422 87.6218 11.0217C87.6218 12.0054 87.1818 12.5781 86.4099 12.5781Z" fill="white"/>
<path d="M89.7202 13.2837H90.6125V10.6399C90.6125 9.93433 91.0317 9.49438 91.6917 9.49438C92.3516 9.49438 92.667 9.85547 92.667 10.5818V13.2837H93.5593V10.3577C93.5593 9.28271 93.0032 8.67676 91.9946 8.67676C91.314 8.67676 90.8657 8.97974 90.6458 9.48193H90.5793V8.76392H89.7202V13.2837Z" fill="white"/>
<path d="M97.669 7.63916V8.78467H96.951V9.53589H97.669V12.0884C97.669 12.96 98.0633 13.3086 99.0553 13.3086C99.2296 13.3086 99.3956 13.2878 99.5409 13.2629V12.52C99.4164 12.5325 99.3375 12.5408 99.2005 12.5408C98.7564 12.5408 98.5614 12.3333 98.5614 11.8601V9.53589H99.5409V8.78467H98.5614V7.63916H97.669Z" fill="white"/>
<path d="M100.739 13.2837H101.631V10.644C101.631 9.95923 102.038 9.49854 102.768 9.49854C103.399 9.49854 103.735 9.86377 103.735 10.5859V13.2837H104.628V10.366C104.628 9.29102 104.034 8.68091 103.071 8.68091C102.391 8.68091 101.913 8.98389 101.693 9.49023H101.623V7H100.739V13.2837Z" fill="white"/>
<path d="M107.847 9.43628C108.507 9.43628 108.938 9.89697 108.959 10.6067H106.676C106.726 9.90112 107.187 9.43628 107.847 9.43628ZM108.955 12.0635C108.789 12.4163 108.419 12.6113 107.88 12.6113C107.166 12.6113 106.705 12.1091 106.676 11.3164V11.2666H109.868V10.9553C109.868 9.53589 109.108 8.67676 107.851 8.67676C106.577 8.67676 105.767 9.59399 105.767 11.0383C105.767 12.4827 106.56 13.3708 107.855 13.3708C108.888 13.3708 109.611 12.8728 109.814 12.0635H108.955Z" fill="white"/>
<path d="M87.7901 17.798V20.089H86.3541V21.5915H87.7901V26.6965C87.7901 28.4396 88.5787 29.1369 90.5625 29.1369C90.9112 29.1369 91.2432 29.0954 91.5337 29.0456V27.5597C91.2847 27.5846 91.127 27.6013 90.8531 27.6013C89.9649 27.6013 89.5748 27.1862 89.5748 26.2399V21.5915H91.5337V20.089H89.5748V17.798H87.7901Z" fill="white"/>
<path d="M96.5876 29.2614C99.2272 29.2614 100.846 27.4933 100.846 24.5632C100.846 21.6496 99.2189 19.8732 96.5876 19.8732C93.9479 19.8732 92.321 21.6496 92.321 24.5632C92.321 27.4933 93.9396 29.2614 96.5876 29.2614ZM96.5876 27.676C95.0353 27.676 94.1638 26.5388 94.1638 24.5632C94.1638 22.6042 95.0353 21.4587 96.5876 21.4587C98.1315 21.4587 99.0114 22.6042 99.0114 24.5632C99.0114 26.5304 98.1315 27.676 96.5876 27.676Z" fill="white"/>
<path d="M102.231 29.0871H104.015V23.7497C104.015 22.4797 104.97 21.6247 106.323 21.6247C106.639 21.6247 107.17 21.6828 107.319 21.7326V19.9728C107.128 19.923 106.788 19.8981 106.522 19.8981C105.344 19.8981 104.339 20.5456 104.082 21.4338H103.949V20.0475H102.231V29.0871Z" fill="white"/>
<path d="M111.75 21.3923C113.07 21.3923 113.934 22.3137 113.975 23.7331H109.41C109.509 22.322 110.431 21.3923 111.75 21.3923ZM113.967 26.6467C113.635 27.3522 112.896 27.7424 111.817 27.7424C110.389 27.7424 109.468 26.738 109.41 25.1525V25.0529H115.793V24.4304C115.793 21.5915 114.274 19.8732 111.759 19.8732C109.21 19.8732 107.592 21.7077 107.592 24.5964C107.592 27.485 109.177 29.2614 111.767 29.2614C113.834 29.2614 115.278 28.2653 115.685 26.6467H113.967Z" fill="white"/>
<path d="M76.0865 25.7489C76.2242 27.9686 78.0739 29.3882 80.827 29.3882C83.7694 29.3882 85.6106 27.8998 85.6106 25.5252C85.6106 23.6583 84.561 22.6259 82.0143 22.0322L80.6464 21.6967C79.0289 21.3181 78.375 20.8105 78.375 19.9243C78.375 18.8059 79.3903 18.0746 80.9131 18.0746C82.3585 18.0746 83.3565 18.7887 83.5371 19.9329H85.4127C85.3009 17.8423 83.4597 16.3711 80.9389 16.3711C78.2288 16.3711 76.422 17.8423 76.422 20.0534C76.422 21.8773 77.4459 22.9614 79.6914 23.4862L81.2916 23.8734C82.9349 24.2605 83.6576 24.8284 83.6576 25.7747C83.6576 26.876 82.5219 27.6761 80.9733 27.6761C79.3128 27.6761 78.16 26.9276 77.9965 25.7489H76.0865Z" fill="white"/>
<path d="M57.5992 19.8981C56.3707 19.8981 55.3082 20.5124 54.7603 21.5417H54.6275V20.0475H52.9092V32.092H54.6939V27.7175H54.835C55.3082 28.6721 56.3292 29.2365 57.6158 29.2365C59.8985 29.2365 61.3511 27.4352 61.3511 24.5632C61.3511 21.6911 59.8985 19.8981 57.5992 19.8981ZM57.0928 27.6345C55.5987 27.6345 54.6607 26.4557 54.6607 24.5715C54.6607 22.6789 55.5987 21.5002 57.1011 21.5002C58.6119 21.5002 59.5167 22.654 59.5167 24.5632C59.5167 26.4806 58.6119 27.6345 57.0928 27.6345Z" fill="white"/>
<path d="M67.596 19.8981C66.3675 19.8981 65.305 20.5124 64.7571 21.5417H64.6243V20.0475H62.906V32.092H64.6907V27.7175H64.8318C65.305 28.6721 66.3259 29.2365 67.6126 29.2365C69.8953 29.2365 71.3479 27.4352 71.3479 24.5632C71.3479 21.6911 69.8953 19.8981 67.596 19.8981ZM67.0896 27.6345C65.5955 27.6345 64.6575 26.4557 64.6575 24.5715C64.6575 22.6789 65.5955 21.5002 67.0979 21.5002C68.6087 21.5002 69.5134 22.654 69.5134 24.5632C69.5134 26.4806 68.6087 27.6345 67.0896 27.6345Z" fill="white"/>
<path d="M49.7072 29.0871H51.7549L47.2724 16.6722H45.199L40.7166 29.0871H42.6954L43.8396 25.7919H48.5716L49.7072 29.0871ZM46.1368 18.9263H46.283L48.0812 24.1745H44.33L46.1368 18.9263Z" fill="white"/>
</svg>
