<svg width="140" height="40" viewBox="0 0 140 40" fill="none" xmlns="http://www.w3.org/2000/svg">
<rect width="140" height="40" rx="8" fill="black"/>
<g filter="url(#filter0_ii)">
<path d="M12.463 7.18628C12.172 7.49428 12 7.97228 12 8.59128V30.7073C12 31.3273 12.172 31.8043 12.463 32.1123L12.537 32.1843L24.926 19.7953V19.6493V19.5033L12.537 7.11328L12.463 7.18628Z" fill="url(#paint0_linear)"/>
<path d="M29.055 23.926L24.926 19.795V19.649V19.503L29.056 15.373L29.149 15.426L34.042 18.206C35.439 19 35.439 20.299 34.042 21.094L29.149 23.874L29.055 23.926Z" fill="url(#paint1_linear)"/>
<g filter="url(#filter1_i)">
<path d="M29.149 23.8729L24.925 19.6489L12.463 32.1119C12.923 32.5999 13.684 32.6599 14.541 32.1739L29.149 23.8729Z" fill="url(#paint2_linear)"/>
</g>
<path d="M29.149 15.4251L14.541 7.12514C13.684 6.63814 12.923 6.69914 12.463 7.18714L24.926 19.6501L29.149 15.4251Z" fill="url(#paint3_linear)"/>
</g>
<path d="M49.1557 9.37795C49.1557 10.216 48.9077 10.883 48.4107 11.381C47.8467 11.973 47.1107 12.269 46.2067 12.269C45.3407 12.269 44.6037 11.969 43.9987 11.369C43.3927 10.768 43.0897 10.024 43.0897 9.13595C43.0897 8.24695 43.3927 7.50295 43.9987 6.90295C44.6037 6.30195 45.3407 6.00195 46.2067 6.00195C46.6367 6.00195 47.0477 6.08595 47.4377 6.25295C47.8287 6.42095 48.1417 6.64395 48.3757 6.92295L47.8487 7.45095C47.4517 6.97595 46.9047 6.73895 46.2057 6.73895C45.5737 6.73895 45.0277 6.96095 44.5667 7.40495C44.1057 7.84895 43.8757 8.42595 43.8757 9.13495C43.8757 9.84395 44.1057 10.421 44.5667 10.865C45.0277 11.309 45.5737 11.531 46.2057 11.531C46.8757 11.531 47.4347 11.308 47.8817 10.861C48.1717 10.57 48.3397 10.165 48.3847 9.64595H46.2057V8.92495H49.1127C49.1427 9.08195 49.1557 9.23295 49.1557 9.37795Z" fill="white"/>
<path d="M53.7658 6.87201H51.0338V8.77401H53.4978V9.49501H51.0338V11.397H53.7658V12.135H50.2628V6.13501H53.7658V6.87201Z" fill="white"/>
<path d="M57.0167 12.135H56.2457V6.87201H54.5697V6.13501H58.6927V6.87201H57.0167V12.135Z" fill="white"/>
<path d="M61.6757 12.135V6.13501H62.4467V12.135H61.6757Z" fill="white"/>
<path d="M65.8658 12.135H65.0948V6.87201H63.4188V6.13501H67.5418V6.87201H65.8658V12.135Z" fill="white"/>
<path d="M75.3466 11.36C74.7566 11.966 74.0236 12.269 73.1466 12.269C72.2696 12.269 71.5366 11.966 70.9476 11.36C70.3576 10.754 70.0636 10.012 70.0636 9.135C70.0636 8.258 70.3576 7.516 70.9476 6.91C71.5366 6.304 72.2696 6 73.1466 6C74.0186 6 74.7506 6.305 75.3426 6.914C75.9346 7.523 76.2306 8.263 76.2306 9.135C76.2306 10.012 75.9356 10.754 75.3466 11.36ZM71.5166 10.857C71.9606 11.307 72.5036 11.531 73.1466 11.531C73.7896 11.531 74.3336 11.306 74.7766 10.857C75.2206 10.407 75.4436 9.833 75.4436 9.135C75.4436 8.437 75.2206 7.863 74.7766 7.413C74.3336 6.963 73.7896 6.739 73.1466 6.739C72.5036 6.739 71.9606 6.964 71.5166 7.413C71.0736 7.863 70.8506 8.437 70.8506 9.135C70.8506 9.833 71.0736 10.407 71.5166 10.857Z" fill="white"/>
<path d="M77.3126 12.135V6.13501H78.2506L81.1666 10.802H81.1996L81.1666 9.64601V6.13501H81.9376V12.135H81.1326L78.0816 7.24101H78.0486L78.0816 8.39701V12.135H77.3126Z" fill="white"/>
<path d="M49.1557 9.37795C49.1557 10.216 48.9077 10.883 48.4107 11.381C47.8467 11.973 47.1107 12.269 46.2067 12.269C45.3407 12.269 44.6037 11.969 43.9987 11.369C43.3927 10.768 43.0897 10.024 43.0897 9.13595C43.0897 8.24695 43.3927 7.50295 43.9987 6.90295C44.6037 6.30195 45.3407 6.00195 46.2067 6.00195C46.6367 6.00195 47.0477 6.08595 47.4377 6.25295C47.8287 6.42095 48.1417 6.64395 48.3757 6.92295L47.8487 7.45095C47.4517 6.97595 46.9047 6.73895 46.2057 6.73895C45.5737 6.73895 45.0277 6.96095 44.5667 7.40495C44.1057 7.84895 43.8757 8.42595 43.8757 9.13495C43.8757 9.84395 44.1057 10.421 44.5667 10.865C45.0277 11.309 45.5737 11.531 46.2057 11.531C46.8757 11.531 47.4347 11.308 47.8817 10.861C48.1717 10.57 48.3397 10.165 48.3847 9.64595H46.2057V8.92495H49.1127C49.1427 9.08195 49.1557 9.23295 49.1557 9.37795Z" stroke="white" stroke-width="0.2" stroke-miterlimit="10"/>
<path d="M53.7658 6.87201H51.0338V8.77401H53.4978V9.49501H51.0338V11.397H53.7658V12.135H50.2628V6.13501H53.7658V6.87201Z" stroke="white" stroke-width="0.2" stroke-miterlimit="10"/>
<path d="M57.0167 12.135H56.2457V6.87201H54.5697V6.13501H58.6927V6.87201H57.0167V12.135Z" stroke="white" stroke-width="0.2" stroke-miterlimit="10"/>
<path d="M61.6757 12.135V6.13501H62.4467V12.135H61.6757Z" stroke="white" stroke-width="0.2" stroke-miterlimit="10"/>
<path d="M65.8658 12.135H65.0948V6.87201H63.4188V6.13501H67.5418V6.87201H65.8658V12.135Z" stroke="white" stroke-width="0.2" stroke-miterlimit="10"/>
<path d="M75.3466 11.36C74.7566 11.966 74.0236 12.269 73.1466 12.269C72.2696 12.269 71.5366 11.966 70.9476 11.36C70.3576 10.754 70.0636 10.012 70.0636 9.135C70.0636 8.258 70.3576 7.516 70.9476 6.91C71.5366 6.304 72.2696 6 73.1466 6C74.0186 6 74.7506 6.305 75.3426 6.914C75.9346 7.523 76.2306 8.263 76.2306 9.135C76.2306 10.012 75.9356 10.754 75.3466 11.36ZM71.5166 10.857C71.9606 11.307 72.5036 11.531 73.1466 11.531C73.7896 11.531 74.3336 11.306 74.7766 10.857C75.2206 10.407 75.4436 9.833 75.4436 9.135C75.4436 8.437 75.2206 7.863 74.7766 7.413C74.3336 6.963 73.7896 6.739 73.1466 6.739C72.5036 6.739 71.9606 6.964 71.5166 7.413C71.0736 7.863 70.8506 8.437 70.8506 9.135C70.8506 9.833 71.0736 10.407 71.5166 10.857Z" stroke="white" stroke-width="0.2" stroke-miterlimit="10"/>
<path d="M77.3126 12.135V6.13501H78.2506L81.1666 10.802H81.1996L81.1666 9.64601V6.13501H81.9376V12.135H81.1326L78.0816 7.24101H78.0486L78.0816 8.39701V12.135H77.3126Z" stroke="white" stroke-width="0.2" stroke-miterlimit="10"/>
<path d="M70.1837 20.973C67.8317 20.973 65.9147 22.762 65.9147 25.226C65.9147 27.675 67.8317 29.479 70.1837 29.479C72.5367 29.479 74.4537 27.675 74.4537 25.226C74.4527 22.762 72.5357 20.973 70.1837 20.973ZM70.1837 27.805C68.8947 27.805 67.7837 26.742 67.7837 25.227C67.7837 23.696 68.8957 22.649 70.1837 22.649C71.4727 22.649 72.5837 23.696 72.5837 25.227C72.5837 26.741 71.4727 27.805 70.1837 27.805ZM60.8697 20.973C58.5177 20.973 56.6007 22.762 56.6007 25.226C56.6007 27.675 58.5177 29.479 60.8697 29.479C63.2227 29.479 65.1397 27.675 65.1397 25.226C65.1397 22.762 63.2227 20.973 60.8697 20.973ZM60.8697 27.805C59.5807 27.805 58.4697 26.742 58.4697 25.227C58.4697 23.696 59.5817 22.649 60.8697 22.649C62.1587 22.649 63.2697 23.696 63.2697 25.227C63.2707 26.741 62.1587 27.805 60.8697 27.805ZM49.7917 22.279V24.083H54.1097C53.9807 25.098 53.6427 25.839 53.1267 26.354C52.4987 26.982 51.5157 27.675 49.7917 27.675C47.1337 27.675 45.0557 25.532 45.0557 22.874C45.0557 20.216 47.1337 18.073 49.7917 18.073C51.2257 18.073 52.2727 18.637 53.0457 19.362L54.3187 18.089C53.2387 17.058 51.8057 16.269 49.7917 16.269C46.1507 16.269 43.0897 19.233 43.0897 22.874C43.0897 26.515 46.1507 29.479 49.7917 29.479C51.7567 29.479 53.2397 28.834 54.3987 27.626C55.5907 26.434 55.9617 24.758 55.9617 23.405C55.9617 22.987 55.9297 22.6 55.8647 22.278H49.7917V22.279ZM95.0997 23.68C94.7457 22.73 93.6657 20.973 91.4587 20.973C89.2677 20.973 87.4467 22.697 87.4467 25.226C87.4467 27.61 89.2517 29.479 91.6677 29.479C93.6167 29.479 94.7447 28.287 95.2127 27.594L93.7627 26.627C93.2797 27.336 92.6187 27.803 91.6677 27.803C90.7177 27.803 90.0407 27.368 89.6057 26.514L95.2927 24.162L95.0997 23.68ZM89.2997 25.098C89.2517 23.454 90.5727 22.617 91.5237 22.617C92.2647 22.617 92.8927 22.988 93.1027 23.519L89.2997 25.098ZM84.6767 29.222H86.5447V16.721H84.6767V29.222ZM81.6147 21.924H81.5507C81.1317 21.424 80.3257 20.973 79.3117 20.973C77.1847 20.973 75.2357 22.842 75.2357 25.243C75.2357 27.627 77.1847 29.48 79.3117 29.48C80.3267 29.48 81.1317 29.029 81.5507 28.514H81.6147V29.126C81.6147 30.753 80.7447 31.623 79.3437 31.623C78.1997 31.623 77.4907 30.802 77.2007 30.109L75.5737 30.786C76.0407 31.913 77.2807 33.299 79.3437 33.299C81.5347 33.299 83.3877 32.01 83.3877 28.868V21.232H81.6157V21.924H81.6147ZM79.4727 27.805C78.1837 27.805 77.1047 26.725 77.1047 25.243C77.1047 23.744 78.1837 22.649 79.4727 22.649C80.7447 22.649 81.7437 23.744 81.7437 25.243C81.7437 26.725 80.7447 27.805 79.4727 27.805ZM103.854 16.721H99.3827V29.222H101.248V24.486H103.853C105.921 24.486 107.955 22.989 107.955 20.604C107.955 18.219 105.922 16.721 103.854 16.721ZM103.902 22.746H101.248V18.461H103.902C105.297 18.461 106.089 19.616 106.089 20.604C106.089 21.572 105.297 22.746 103.902 22.746ZM115.434 20.951C114.083 20.951 112.684 21.546 112.105 22.865L113.761 23.556C114.115 22.865 114.775 22.639 115.466 22.639C116.431 22.639 117.412 23.218 117.428 24.247V24.376C117.09 24.183 116.366 23.894 115.482 23.894C113.697 23.894 111.879 24.875 111.879 26.708C111.879 28.381 113.343 29.458 114.983 29.458C116.237 29.458 116.929 28.895 117.363 28.235H117.427V29.2H119.229V24.407C119.23 22.189 117.572 20.951 115.434 20.951ZM115.208 27.802C114.598 27.802 113.745 27.496 113.745 26.74C113.745 25.775 114.807 25.405 115.724 25.405C116.543 25.405 116.93 25.582 117.428 25.823C117.283 26.982 116.286 27.802 115.208 27.802ZM125.791 21.224L123.652 26.644H123.588L121.368 21.224H119.358L122.687 28.799L120.789 33.013H122.735L127.866 21.224H125.791ZM108.985 29.222H110.85V16.721H108.985V29.222Z" fill="white"/>
<defs>
<filter id="filter0_ii" x="12" y="6.78906" width="23.0897" height="25.7207" filterUnits="userSpaceOnUse" color-interpolation-filters="sRGB">
<feFlood flood-opacity="0" result="BackgroundImageFix"/>
<feBlend mode="normal" in="SourceGraphic" in2="BackgroundImageFix" result="shape"/>
<feColorMatrix in="SourceAlpha" type="matrix" values="0 0 0 0 0 0 0 0 0 0 0 0 0 0 0 0 0 0 127 0" result="hardAlpha"/>
<feOffset dy="-0.15"/>
<feComposite in2="hardAlpha" operator="arithmetic" k2="-1" k3="1"/>
<feColorMatrix type="matrix" values="0 0 0 0 0 0 0 0 0 0 0 0 0 0 0 0 0 0 0.12 0"/>
<feBlend mode="normal" in2="shape" result="effect1_innerShadow"/>
<feColorMatrix in="SourceAlpha" type="matrix" values="0 0 0 0 0 0 0 0 0 0 0 0 0 0 0 0 0 0 127 0" result="hardAlpha"/>
<feOffset dy="0.15"/>
<feComposite in2="hardAlpha" operator="arithmetic" k2="-1" k3="1"/>
<feColorMatrix type="matrix" values="0 0 0 0 1 0 0 0 0 1 0 0 0 0 1 0 0 0 0.25 0"/>
<feBlend mode="normal" in2="effect1_innerShadow" result="effect2_innerShadow"/>
</filter>
<filter id="filter1_i" x="12.463" y="19.6489" width="16.686" height="12.8608" filterUnits="userSpaceOnUse" color-interpolation-filters="sRGB">
<feFlood flood-opacity="0" result="BackgroundImageFix"/>
<feBlend mode="normal" in="SourceGraphic" in2="BackgroundImageFix" result="shape"/>
<feColorMatrix in="SourceAlpha" type="matrix" values="0 0 0 0 0 0 0 0 0 0 0 0 0 0 0 0 0 0 127 0" result="hardAlpha"/>
<feOffset dy="-0.15"/>
<feComposite in2="hardAlpha" operator="arithmetic" k2="-1" k3="1"/>
<feColorMatrix type="matrix" values="0 0 0 0 0 0 0 0 0 0 0 0 0 0 0 0 0 0 0.08 0"/>
<feBlend mode="normal" in2="shape" result="effect1_innerShadow"/>
</filter>
<linearGradient id="paint0_linear" x1="23.8278" y1="8.35728" x2="7.0458" y2="25.1393" gradientUnits="userSpaceOnUse">
<stop stop-color="#00A0FF"/>
<stop offset="0.0066" stop-color="#00A1FF"/>
<stop offset="0.2601" stop-color="#00BEFF"/>
<stop offset="0.5122" stop-color="#00D2FF"/>
<stop offset="0.7604" stop-color="#00DFFF"/>
<stop offset="1" stop-color="#00E3FF"/>
</linearGradient>
<linearGradient id="paint1_linear" x1="35.8605" y1="19.649" x2="11.6646" y2="19.649" gradientUnits="userSpaceOnUse">
<stop stop-color="#FFE000"/>
<stop offset="0.4087" stop-color="#FFBD00"/>
<stop offset="0.7754" stop-color="#FFA500"/>
<stop offset="1" stop-color="#FF9C00"/>
</linearGradient>
<linearGradient id="paint2_linear" x1="26.8551" y1="21.9428" x2="4.09662" y2="44.7013" gradientUnits="userSpaceOnUse">
<stop stop-color="#FF3A44"/>
<stop offset="1" stop-color="#C31162"/>
</linearGradient>
<linearGradient id="paint3_linear" x1="9.32441" y1="-0.175062" x2="19.4867" y2="9.98724" gradientUnits="userSpaceOnUse">
<stop stop-color="#32A071"/>
<stop offset="0.0685" stop-color="#2DA771"/>
<stop offset="0.4762" stop-color="#15CF74"/>
<stop offset="0.8009" stop-color="#06E775"/>
<stop offset="1" stop-color="#00F076"/>
</linearGradient>
</defs>
</svg>
