<svg width="195" height="48" viewBox="0 0 195 48" fill="none" xmlns="http://www.w3.org/2000/svg">
<rect x="0.75" y="0.75" width="193.5" height="46.5" rx="7.25" fill="url(#paint0_linear)"/>
<g filter="url(#filter0_ddi)">
<path d="M24.008 34.3174C25.7218 34.3174 26.6994 33.3018 26.6994 31.499V28.998H29.3146C33.5929 28.998 36.5002 26.3955 36.5002 22.3584C36.5002 18.2832 33.758 15.6807 29.6828 15.6807H24.008C22.2941 15.6807 21.3166 16.6963 21.3166 18.499V31.499C21.3166 33.3018 22.2941 34.3174 24.008 34.3174ZM26.6994 25.0244V19.7305H28.2482C30.0002 19.7305 31.0666 20.6318 31.0666 22.3711C31.0666 24.123 30.0002 25.0244 28.2101 25.0244H26.6994ZM42.1359 34H49.8927C51.34 34 52.2667 33.2256 52.2667 31.8545C52.2667 30.4834 51.3146 29.709 49.8927 29.709H44.8273V18.1816C44.8273 16.3789 43.8497 15.3633 42.1359 15.3633C40.422 15.3633 39.4445 16.3789 39.4445 18.1816V31.1816C39.4445 32.9844 40.422 34 42.1359 34ZM57.4454 34.3174C58.9053 34.3174 59.7178 33.5684 60.2257 31.7275L60.543 30.5723H66.5098L66.8272 31.8164C67.2843 33.5938 68.1095 34.3174 69.6964 34.3174C71.2579 34.3174 72.3878 33.2256 72.3878 31.7021C72.3878 31.1182 72.2862 30.6104 72.0323 29.9121L67.8936 18.5879C67.0684 16.3281 65.7481 15.3633 63.4503 15.3633C61.3048 15.3633 59.9718 16.3662 59.1846 18.5879L55.0841 29.9121C54.8428 30.5596 54.7032 31.2451 54.7032 31.7148C54.7032 33.3398 55.7315 34.3174 57.4454 34.3174ZM61.5587 26.5605L63.3741 19.9082H63.4757L65.38 26.5605H61.5587ZM80.8672 34.3174C82.5811 34.3174 83.5586 33.3018 83.5586 31.499V28.1982L88.8018 19.7812C89.1827 19.1719 89.3731 18.5498 89.3731 17.9023C89.3731 16.4424 88.2432 15.3633 86.7071 15.3633C85.628 15.3633 84.917 15.8711 84.2315 17.1279L80.9815 23.1074H80.8799L77.6426 17.1406C76.919 15.8076 76.2842 15.3633 75.1035 15.3633C73.5166 15.3633 72.3614 16.4551 72.3614 17.9531C72.3614 18.5752 72.5518 19.21 72.92 19.8066L78.1758 28.1982V31.499C78.1758 33.3018 79.1534 34.3174 80.8672 34.3174ZM107.31 34.3174C112.769 34.3174 115.79 30.9658 115.79 26.6113C115.79 24.8086 114.812 23.793 113.099 23.793H109.557C108.338 23.793 107.563 24.4277 107.563 25.583C107.563 26.7383 108.351 27.373 109.557 27.373H110.61L110.585 27.627C110.433 29.0996 109.188 30.0771 107.436 30.0771C105.075 30.0771 103.539 28.084 103.539 24.7451C103.539 21.4824 104.885 19.6035 107.17 19.6035C108.465 19.6035 109.341 20.0859 110.204 21.2412C110.864 22.1172 111.664 22.5234 112.718 22.5234C114.089 22.5234 115.028 21.5967 115.028 20.251C115.028 19.7939 114.927 19.3623 114.66 18.8672C113.581 16.9375 110.813 15.3633 107.144 15.3633C101.495 15.3633 98.0546 18.8164 98.0546 24.8213C98.0546 30.9023 101.495 34.3174 107.31 34.3174ZM120.309 34.3174C121.768 34.3174 122.581 33.5684 123.089 31.7275L123.406 30.5723H129.373L129.69 31.8164C130.147 33.5938 130.973 34.3174 132.559 34.3174C134.121 34.3174 135.251 33.2256 135.251 31.7021C135.251 31.1182 135.149 30.6104 134.895 29.9121L130.757 18.5879C129.932 16.3281 128.611 15.3633 126.313 15.3633C124.168 15.3633 122.835 16.3662 122.048 18.5879L117.947 29.9121C117.706 30.5596 117.566 31.2451 117.566 31.7148C117.566 33.3398 118.595 34.3174 120.309 34.3174ZM124.422 26.5605L126.237 19.9082H126.339L128.243 26.5605H124.422ZM140.81 34.3174C142.308 34.3174 143.159 33.416 143.159 31.8291V23.3867H143.261L146.904 32.5654C147.26 33.4795 147.882 33.9111 148.847 33.9111C149.799 33.9111 150.383 33.4922 150.751 32.5654L154.394 23.3867H154.496V31.8291C154.496 33.416 155.347 34.3174 156.845 34.3174C158.343 34.3174 159.193 33.416 159.193 31.8291V18.8926C159.193 16.6328 157.949 15.3633 155.702 15.3633C153.81 15.3633 152.807 16.1123 152.046 18.1055L148.885 26.3701H148.783L145.609 18.1055C144.848 16.1123 143.845 15.3633 141.953 15.3633C139.706 15.3633 138.462 16.6328 138.462 18.8926V31.8291C138.462 33.416 139.312 34.3174 140.81 34.3174ZM165.476 34H173.589C175.036 34 175.963 33.2256 175.963 31.8545C175.963 30.4834 175.011 29.709 173.589 29.709H168.168V26.7764H173.373C174.681 26.7764 175.493 26.0781 175.493 24.8467C175.493 23.6152 174.655 22.917 173.373 22.917H168.168V19.9717H173.589C175.011 19.9717 175.963 19.1973 175.963 17.8262C175.963 16.4551 175.036 15.6807 173.589 15.6807H165.476C163.763 15.6807 162.785 16.6963 162.785 18.499V31.1816C162.785 32.9844 163.763 34 165.476 34Z" fill="url(#paint1_linear)"/>
<path d="M26.6994 28.998V27.998H25.6994V28.998H26.6994ZM26.6994 25.0244H25.6994V26.0244H26.6994V25.0244ZM26.6994 19.7305V18.7305H25.6994V19.7305H26.6994ZM24.008 35.3174C25.0634 35.3174 26.0257 34.9999 26.7189 34.2756C27.4059 33.5577 27.6994 32.5747 27.6994 31.499H25.6994C25.6994 32.2261 25.5041 32.6523 25.2739 32.8928C25.0498 33.127 24.6664 33.3174 24.008 33.3174V35.3174ZM27.6994 31.499V28.998H25.6994V31.499H27.6994ZM26.6994 29.998H29.3146V27.998H26.6994V29.998ZM29.3146 29.998C31.6547 29.998 33.7079 29.2842 35.1871 27.9296C36.6752 26.567 37.5002 24.6297 37.5002 22.3584H35.5002C35.5002 24.1242 34.8715 25.5067 33.8364 26.4546C32.7924 27.4106 31.2528 27.998 29.3146 27.998V29.998ZM37.5002 22.3584C37.5002 20.0893 36.7313 18.1476 35.3162 16.7738C33.9045 15.4033 31.9351 14.6807 29.6828 14.6807V16.6807C31.5056 16.6807 32.945 17.2593 33.9231 18.2088C34.8979 19.1551 35.5002 20.5523 35.5002 22.3584H37.5002ZM29.6828 14.6807H24.008V16.6807H29.6828V14.6807ZM24.008 14.6807C22.9525 14.6807 21.9902 14.9981 21.2971 15.7224C20.6101 16.4403 20.3166 17.4234 20.3166 18.499H22.3166C22.3166 17.772 22.5118 17.3458 22.742 17.1052C22.9662 16.871 23.3496 16.6807 24.008 16.6807V14.6807ZM20.3166 18.499V31.499H22.3166V18.499H20.3166ZM20.3166 31.499C20.3166 32.5747 20.6101 33.5577 21.2971 34.2756C21.9902 34.9999 22.9525 35.3174 24.008 35.3174V33.3174C23.3496 33.3174 22.9662 33.127 22.742 32.8928C22.5118 32.6523 22.3166 32.2261 22.3166 31.499H20.3166ZM27.6994 25.0244V19.7305H25.6994V25.0244H27.6994ZM26.6994 20.7305H28.2482V18.7305H26.6994V20.7305ZM28.2482 20.7305C28.9635 20.7305 29.3956 20.9141 29.6406 21.1375C29.8709 21.3475 30.0666 21.7113 30.0666 22.3711H32.0666C32.0666 21.2916 31.729 20.3351 30.9881 19.6596C30.2619 18.9975 29.2848 18.7305 28.2482 18.7305V20.7305ZM30.0666 22.3711C30.0666 23.039 29.8699 23.4037 29.6381 23.6137C29.3904 23.8382 28.9495 24.0244 28.2101 24.0244V26.0244C29.2608 26.0244 30.2481 25.7599 30.9811 25.0958C31.73 24.4171 32.0666 23.4551 32.0666 22.3711H30.0666ZM28.2101 24.0244H26.6994V26.0244H28.2101V24.0244ZM44.8273 29.709H43.8273V30.709H44.8273V29.709ZM42.1359 35H49.8927V33H42.1359V35ZM49.8927 35C50.7861 35 51.6407 34.7604 52.285 34.1904C52.946 33.6057 53.2667 32.7781 53.2667 31.8545H51.2667C51.2667 32.302 51.1241 32.5471 50.9599 32.6924C50.779 32.8524 50.4466 33 49.8927 33V35ZM53.2667 31.8545C53.2667 30.9226 52.934 30.0967 52.2726 29.5161C51.6283 28.9504 50.7771 28.709 49.8927 28.709V30.709C50.4302 30.709 50.766 30.8548 50.9532 31.0191C51.1233 31.1684 51.2667 31.4152 51.2667 31.8545H53.2667ZM49.8927 28.709H44.8273V30.709H49.8927V28.709ZM45.8273 29.709V18.1816H43.8273V29.709H45.8273ZM45.8273 18.1816C45.8273 17.106 45.5338 16.123 44.8467 15.405C44.1536 14.6808 43.1913 14.3633 42.1359 14.3633V16.3633C42.7943 16.3633 43.1777 16.5536 43.4018 16.7878C43.632 17.0284 43.8273 17.4546 43.8273 18.1816H45.8273ZM42.1359 14.3633C41.0804 14.3633 40.1181 14.6808 39.425 15.405C38.738 16.123 38.4445 17.106 38.4445 18.1816H40.4445C40.4445 17.4546 40.6397 17.0284 40.8699 16.7878C41.0941 16.5536 41.4774 16.3633 42.1359 16.3633V14.3633ZM38.4445 18.1816V31.1816H40.4445V18.1816H38.4445ZM38.4445 31.1816C38.4445 32.2573 38.738 33.2403 39.425 33.9582C40.1181 34.6825 41.0804 35 42.1359 35V33C41.4774 33 41.0941 32.8097 40.8699 32.5755C40.6397 32.3349 40.4445 31.9087 40.4445 31.1816H38.4445ZM60.2257 31.7275L61.1897 31.9935L61.1899 31.9924L60.2257 31.7275ZM60.543 30.5723V29.5723H59.7807L59.5788 30.3074L60.543 30.5723ZM66.5098 30.5723L67.4788 30.3251L67.2868 29.5723H66.5098V30.5723ZM66.8272 31.8164L65.8583 32.0636L65.8587 32.0654L66.8272 31.8164ZM72.0323 29.9121L72.9721 29.5704L72.9715 29.5688L72.0323 29.9121ZM67.8936 18.5879L66.9543 18.9309L66.9544 18.9312L67.8936 18.5879ZM59.1846 18.5879L60.1249 18.9284L60.1272 18.9218L59.1846 18.5879ZM55.0841 29.9121L56.0212 30.2612L56.0243 30.2526L55.0841 29.9121ZM61.5587 26.5605L60.5939 26.2973L60.2492 27.5605H61.5587V26.5605ZM63.3741 19.9082V18.9082H62.6104L62.4094 19.6449L63.3741 19.9082ZM63.4757 19.9082L64.437 19.633L64.2296 18.9082H63.4757V19.9082ZM65.38 26.5605V27.5605H66.7064L66.3413 26.2853L65.38 26.5605ZM57.4454 35.3174C58.36 35.3174 59.1949 35.0758 59.8733 34.4453C60.5189 33.8454 60.9144 32.9913 61.1897 31.9935L59.2617 31.4616C59.0291 32.3046 58.7645 32.7454 58.5118 32.9803C58.2921 33.1845 57.9907 33.3174 57.4454 33.3174V35.3174ZM61.1899 31.9924L61.5073 30.8372L59.5788 30.3074L59.2614 31.4626L61.1899 31.9924ZM60.543 31.5723H66.5098V29.5723H60.543V31.5723ZM65.5409 30.8195L65.8583 32.0636L67.7962 31.5692L67.4788 30.3251L65.5409 30.8195ZM65.8587 32.0654C66.1105 33.0445 66.5013 33.8939 67.1805 34.4868C67.8814 35.0985 68.7492 35.3174 69.6964 35.3174V33.3174C69.0566 33.3174 68.7184 33.1744 68.4957 32.98C68.2513 32.7667 68.001 32.3656 67.7957 31.5674L65.8587 32.0654ZM69.6964 35.3174C71.7813 35.3174 73.3878 33.8063 73.3878 31.7021H71.3878C71.3878 32.6449 70.7344 33.3174 69.6964 33.3174V35.3174ZM73.3878 31.7021C73.3878 30.9738 73.255 30.3485 72.9721 29.5704L71.0925 30.2539C71.3174 30.8722 71.3878 31.2626 71.3878 31.7021H73.3878ZM72.9715 29.5688L68.8329 18.2446L66.9544 18.9312L71.0931 30.2554L72.9715 29.5688ZM68.833 18.2449C68.3792 17.0023 67.7472 15.9989 66.8122 15.3193C65.8711 14.6353 64.7394 14.3633 63.4503 14.3633V16.3633C64.459 16.3633 65.1364 16.5737 65.6362 16.9371C66.1421 17.3048 66.5828 17.9137 66.9543 18.9309L68.833 18.2449ZM63.4503 14.3633C62.2167 14.3633 61.1192 14.6545 60.2055 15.3444C59.3009 16.0275 58.6773 17.0254 58.2421 18.2539L60.1272 18.9218C60.4791 17.9287 60.9156 17.3143 61.4107 16.9405C61.8966 16.5736 62.5384 16.3633 63.4503 16.3633V14.3633ZM58.2444 18.2474L54.1438 29.5716L56.0243 30.2526L60.1249 18.9284L58.2444 18.2474ZM54.147 29.563C53.8784 30.284 53.7032 31.0911 53.7032 31.7148H55.7032C55.7032 31.3992 55.8073 30.8351 56.0211 30.2612L54.147 29.563ZM53.7032 31.7148C53.7032 32.7434 54.0343 33.6778 54.743 34.3507C55.4452 35.0174 56.4018 35.3174 57.4454 35.3174V33.3174C56.7751 33.3174 56.3606 33.1286 56.1202 32.9003C55.8862 32.6782 55.7032 32.3113 55.7032 31.7148H53.7032ZM62.5234 26.8238L64.3388 20.1715L62.4094 19.6449L60.5939 26.2973L62.5234 26.8238ZM63.3741 20.9082H63.4757V18.9082H63.3741V20.9082ZM62.5143 20.1834L64.4186 26.8358L66.3413 26.2853L64.437 19.633L62.5143 20.1834ZM65.38 25.5605H61.5587V27.5605H65.38V25.5605ZM83.5586 28.1982L82.7098 27.6695L82.5586 27.9123V28.1982H83.5586ZM88.8018 19.7812L87.9538 19.2513L87.953 19.2525L88.8018 19.7812ZM84.2315 17.1279L83.3536 16.6491L83.3529 16.6504L84.2315 17.1279ZM80.9815 23.1074V24.1074H81.5761L81.8601 23.585L80.9815 23.1074ZM80.8799 23.1074L80.0009 23.5843L80.2848 24.1074H80.8799V23.1074ZM77.6426 17.1406L78.5216 16.6637L78.5215 16.6635L77.6426 17.1406ZM72.92 19.8066L72.0689 20.3318L72.0725 20.3374L72.92 19.8066ZM78.1758 28.1982H79.1758V27.9109L79.0233 27.6674L78.1758 28.1982ZM80.8672 35.3174C81.9227 35.3174 82.885 34.9999 83.5781 34.2756C84.2651 33.5577 84.5586 32.5747 84.5586 31.499H82.5586C82.5586 32.2261 82.3634 32.6523 82.1331 32.8928C81.909 33.127 81.5256 33.3174 80.8672 33.3174V35.3174ZM84.5586 31.499V28.1982H82.5586V31.499H84.5586ZM84.4074 28.727L89.6506 20.31L87.953 19.2525L82.7098 27.6695L84.4074 28.727ZM89.6498 20.3112C90.1176 19.5627 90.3731 18.7592 90.3731 17.9023H88.3731C88.3731 18.3404 88.2477 18.781 87.9538 19.2513L89.6498 20.3112ZM90.3731 17.9023C90.3731 15.8454 88.7497 14.3633 86.7071 14.3633V16.3633C87.7366 16.3633 88.3731 17.0393 88.3731 17.9023H90.3731ZM86.7071 14.3633C85.9946 14.3633 85.3355 14.5362 84.7411 14.9601C84.1705 15.367 83.733 15.9535 83.3536 16.6491L85.1094 17.6068C85.4155 17.0455 85.6763 16.7497 85.9023 16.5885C86.1045 16.4442 86.3404 16.3633 86.7071 16.3633V14.3633ZM83.3529 16.6504L80.1029 22.6299L81.8601 23.585L85.1101 17.6055L83.3529 16.6504ZM80.9815 22.1074H80.8799V24.1074H80.9815V22.1074ZM81.7589 22.6305L78.5216 16.6637L76.7636 17.6175L80.0009 23.5843L81.7589 22.6305ZM78.5215 16.6635C78.1328 15.9476 77.7032 15.3426 77.1179 14.9328C76.5029 14.5023 75.8278 14.3633 75.1035 14.3633V16.3633C75.56 16.3633 75.7926 16.4464 75.971 16.5713C76.1792 16.717 76.4288 17.0006 76.7638 17.6177L78.5215 16.6635ZM75.1035 14.3633C73.0188 14.3633 71.3614 15.8499 71.3614 17.9531H73.3614C73.3614 17.0603 74.0145 16.3633 75.1035 16.3633V14.3633ZM71.3614 17.9531C71.3614 18.7822 71.6153 19.5966 72.0689 20.3317L73.771 19.2815C73.4883 18.8233 73.3614 18.3682 73.3614 17.9531H71.3614ZM72.0725 20.3374L77.3283 28.729L79.0233 27.6674L73.7674 19.2758L72.0725 20.3374ZM77.1758 28.1982V31.499H79.1758V28.1982H77.1758ZM77.1758 31.499C77.1758 32.5747 77.4693 33.5577 78.1563 34.2756C78.8495 34.9999 79.8118 35.3174 80.8672 35.3174V33.3174C80.2088 33.3174 79.8254 33.127 79.6013 32.8928C79.3711 32.6523 79.1758 32.2261 79.1758 31.499H77.1758ZM110.61 27.373L111.605 27.4726L111.715 26.373H110.61V27.373ZM110.585 27.627L111.58 27.7299L111.58 27.7265L110.585 27.627ZM110.204 21.2412L109.403 21.8398L109.405 21.8431L110.204 21.2412ZM114.66 18.8672L115.541 18.3931L115.537 18.3861L115.533 18.3791L114.66 18.8672ZM107.31 35.3174C110.246 35.3174 112.632 34.4119 114.29 32.8182C115.948 31.2241 116.79 29.0249 116.79 26.6113H114.79C114.79 28.5522 114.121 30.2061 112.904 31.3764C111.686 32.5471 109.832 33.3174 107.31 33.3174V35.3174ZM116.79 26.6113C116.79 25.5357 116.496 24.5527 115.809 23.8347C115.116 23.1104 114.154 22.793 113.099 22.793V24.793C113.757 24.793 114.14 24.9833 114.365 25.2175C114.595 25.4581 114.79 25.8843 114.79 26.6113H116.79ZM113.099 22.793H109.557V24.793H113.099V22.793ZM109.557 22.793C108.784 22.793 108.024 22.9944 107.444 23.5026C106.845 24.0273 106.563 24.769 106.563 25.583H108.563C108.563 25.2417 108.669 25.0885 108.762 25.0069C108.874 24.909 109.111 24.793 109.557 24.793V22.793ZM106.563 25.583C106.563 26.402 106.852 27.1427 107.45 27.6649C108.03 28.1706 108.788 28.373 109.557 28.373V26.373C109.119 26.373 108.88 26.2581 108.765 26.1576C108.669 26.0736 108.563 25.9193 108.563 25.583H106.563ZM109.557 28.373H110.61V26.373H109.557V28.373ZM109.615 27.2735L109.59 27.5274L111.58 27.7265L111.605 27.4726L109.615 27.2735ZM109.59 27.5241C109.503 28.3649 108.809 29.0771 107.436 29.0771V31.0771C109.568 31.0771 111.362 29.8343 111.58 27.7299L109.59 27.5241ZM107.436 29.0771C106.571 29.0771 105.895 28.7276 105.405 28.0674C104.893 27.3764 104.539 26.2758 104.539 24.7451H102.539C102.539 26.5533 102.953 28.1187 103.799 29.259C104.668 30.4301 105.941 31.0771 107.436 31.0771V29.0771ZM104.539 24.7451C104.539 23.2313 104.854 22.1768 105.313 21.5291C105.742 20.9251 106.34 20.6035 107.17 20.6035V18.6035C105.714 18.6035 104.498 19.2214 103.682 20.3725C102.897 21.4799 102.539 22.9963 102.539 24.7451H104.539ZM107.17 20.6035C107.686 20.6035 108.058 20.6978 108.372 20.8682C108.695 21.0432 109.027 21.3364 109.403 21.8398L111.005 20.6426C110.518 19.9907 109.98 19.4651 109.325 19.11C108.662 18.7505 107.949 18.6035 107.17 18.6035V20.6035ZM109.405 21.8431C110.247 22.9592 111.337 23.5234 112.718 23.5234V21.5234C111.991 21.5234 111.482 21.2752 111.003 20.6394L109.405 21.8431ZM112.718 23.5234C113.633 23.5234 114.473 23.2101 115.089 22.6045C115.705 21.9977 116.028 21.1635 116.028 20.251H114.028C114.028 20.6841 113.882 20.9862 113.686 21.1792C113.488 21.3733 113.173 21.5234 112.718 21.5234V23.5234ZM116.028 20.251C116.028 19.62 115.882 19.0263 115.541 18.3931L113.78 19.3413C113.972 19.6983 114.028 19.9679 114.028 20.251H116.028ZM115.533 18.3791C114.226 16.0425 111.058 14.3633 107.144 14.3633V16.3633C110.569 16.3633 112.936 17.8325 113.787 19.3553L115.533 18.3791ZM107.144 14.3633C104.114 14.3633 101.559 15.2942 99.7634 17.144C97.9716 18.9902 97.0546 21.6304 97.0546 24.8213H99.0546C99.0546 22.0073 99.8578 19.9184 101.199 18.5369C102.536 17.1589 104.526 16.3633 107.144 16.3633V14.3633ZM97.0546 24.8213C97.0546 28.0473 97.9702 30.7015 99.7886 32.5509C101.609 34.4023 104.207 35.3174 107.31 35.3174V33.3174C104.598 33.3174 102.568 32.5249 101.215 31.1486C99.8593 29.7702 99.0546 27.6764 99.0546 24.8213H97.0546ZM123.089 31.7275L124.053 31.9935L124.053 31.9924L123.089 31.7275ZM123.406 30.5723V29.5723H122.644L122.442 30.3074L123.406 30.5723ZM129.373 30.5723L130.342 30.3251L130.15 29.5723H129.373V30.5723ZM129.69 31.8164L128.721 32.0636L128.722 32.0654L129.69 31.8164ZM134.895 29.9121L135.835 29.5704L135.835 29.5688L134.895 29.9121ZM130.757 18.5879L129.817 18.9309L129.818 18.9312L130.757 18.5879ZM122.048 18.5879L122.988 18.9284L122.99 18.9218L122.048 18.5879ZM117.947 29.9121L118.884 30.2612L118.887 30.2526L117.947 29.9121ZM124.422 26.5605L123.457 26.2973L123.112 27.5605H124.422V26.5605ZM126.237 19.9082V18.9082H125.474L125.272 19.6449L126.237 19.9082ZM126.339 19.9082L127.3 19.633L127.093 18.9082H126.339V19.9082ZM128.243 26.5605V27.5605H129.57L129.204 26.2853L128.243 26.5605ZM120.309 35.3174C121.223 35.3174 122.058 35.0758 122.736 34.4453C123.382 33.8454 123.778 32.9913 124.053 31.9935L122.125 31.4616C121.892 32.3046 121.628 32.7454 121.375 32.9803C121.155 33.1845 120.854 33.3174 120.309 33.3174V35.3174ZM124.053 31.9924L124.37 30.8372L122.442 30.3074L122.125 31.4626L124.053 31.9924ZM123.406 31.5723H129.373V29.5723H123.406V31.5723ZM128.404 30.8195L128.721 32.0636L130.659 31.5692L130.342 30.3251L128.404 30.8195ZM128.722 32.0654C128.974 33.0445 129.364 33.8939 130.044 34.4868C130.745 35.0985 131.612 35.3174 132.559 35.3174V33.3174C131.92 33.3174 131.581 33.1744 131.359 32.98C131.114 32.7667 130.864 32.3656 130.659 31.5674L128.722 32.0654ZM132.559 35.3174C134.644 35.3174 136.251 33.8063 136.251 31.7021H134.251C134.251 32.6449 133.598 33.3174 132.559 33.3174V35.3174ZM136.251 31.7021C136.251 30.9738 136.118 30.3485 135.835 29.5704L133.956 30.2539C134.18 30.8722 134.251 31.2626 134.251 31.7021H136.251ZM135.835 29.5688L131.696 18.2446L129.818 18.9312L133.956 30.2554L135.835 29.5688ZM131.696 18.2449C131.242 17.0023 130.61 15.9989 129.675 15.3193C128.734 14.6353 127.602 14.3633 126.313 14.3633V16.3633C127.322 16.3633 127.999 16.5737 128.499 16.9371C129.005 17.3048 129.446 17.9137 129.817 18.9309L131.696 18.2449ZM126.313 14.3633C125.08 14.3633 123.982 14.6545 123.069 15.3444C122.164 16.0275 121.54 17.0254 121.105 18.2539L122.99 18.9218C123.342 17.9287 123.779 17.3143 124.274 16.9405C124.76 16.5736 125.401 16.3633 126.313 16.3633V14.3633ZM121.108 18.2474L117.007 29.5716L118.887 30.2526L122.988 18.9284L121.108 18.2474ZM117.01 29.563C116.741 30.284 116.566 31.0911 116.566 31.7148H118.566C118.566 31.3992 118.67 30.8351 118.884 30.2612L117.01 29.563ZM116.566 31.7148C116.566 32.7434 116.897 33.6778 117.606 34.3507C118.308 35.0174 119.265 35.3174 120.309 35.3174V33.3174C119.638 33.3174 119.224 33.1286 118.983 32.9003C118.749 32.6782 118.566 32.3113 118.566 31.7148H116.566ZM125.387 26.8238L127.202 20.1715L125.272 19.6449L123.457 26.2973L125.387 26.8238ZM126.237 20.9082H126.339V18.9082H126.237V20.9082ZM125.377 20.1834L127.282 26.8358L129.204 26.2853L127.3 19.633L125.377 20.1834ZM128.243 25.5605H124.422V27.5605H128.243V25.5605ZM143.159 23.3867V22.3867H142.159V23.3867H143.159ZM143.261 23.3867L144.19 23.0178L143.94 22.3867H143.261V23.3867ZM146.904 32.5654L147.836 32.203L147.834 32.1965L146.904 32.5654ZM150.751 32.5654L151.68 32.9346L151.68 32.9344L150.751 32.5654ZM154.394 23.3867V22.3867H153.715L153.465 23.0178L154.394 23.3867ZM154.496 23.3867H155.496V22.3867H154.496V23.3867ZM152.046 18.1055L152.98 18.4627L152.98 18.4625L152.046 18.1055ZM148.885 26.3701V27.3701H149.573L149.819 26.7274L148.885 26.3701ZM148.783 26.3701L147.85 26.7286L148.096 27.3701H148.783V26.3701ZM145.609 18.1055L144.675 18.4625L144.676 18.464L145.609 18.1055ZM140.81 35.3174C141.762 35.3174 142.64 35.0257 143.274 34.3547C143.899 33.6922 144.159 32.7938 144.159 31.8291H142.159C142.159 32.4513 141.994 32.797 141.819 32.982C141.653 33.1584 141.356 33.3174 140.81 33.3174V35.3174ZM144.159 31.8291V23.3867H142.159V31.8291H144.159ZM143.159 24.3867H143.261V22.3867H143.159V24.3867ZM142.331 23.7557L145.975 32.9344L147.834 32.1965L144.19 23.0178L142.331 23.7557ZM145.972 32.9279C146.202 33.5195 146.553 34.0394 147.077 34.403C147.603 34.7676 148.213 34.9111 148.847 34.9111V32.9111C148.516 32.9111 148.332 32.8389 148.216 32.7592C148.1 32.6783 147.962 32.5254 147.836 32.203L145.972 32.9279ZM148.847 34.9111C149.473 34.9111 150.075 34.7714 150.596 34.4015C151.112 34.0358 151.449 33.5154 151.68 32.9346L149.822 32.1962C149.684 32.5422 149.546 32.6946 149.439 32.7701C149.339 32.8414 149.173 32.9111 148.847 32.9111V34.9111ZM151.68 32.9344L155.324 23.7557L153.465 23.0178L149.821 32.1965L151.68 32.9344ZM154.394 24.3867H154.496V22.3867H154.394V24.3867ZM153.496 23.3867V31.8291H155.496V23.3867H153.496ZM153.496 31.8291C153.496 32.7938 153.756 33.6922 154.381 34.3547C155.015 35.0257 155.893 35.3174 156.845 35.3174V33.3174C156.299 33.3174 156.002 33.1584 155.836 32.982C155.661 32.797 155.496 32.4513 155.496 31.8291H153.496ZM156.845 35.3174C157.797 35.3174 158.675 35.0257 159.308 34.3547C159.933 33.6922 160.193 32.7938 160.193 31.8291H158.193C158.193 32.4513 158.028 32.797 157.853 32.982C157.687 33.1584 157.391 33.3174 156.845 33.3174V35.3174ZM160.193 31.8291V18.8926H158.193V31.8291H160.193ZM160.193 18.8926C160.193 17.5843 159.831 16.4177 159.002 15.5781C158.172 14.7365 157.011 14.3633 155.702 14.3633V16.3633C156.64 16.3633 157.225 16.6249 157.578 16.9829C157.934 17.343 158.193 17.9411 158.193 18.8926H160.193ZM155.702 14.3633C154.624 14.3633 153.663 14.5778 152.851 15.1867C152.054 15.7838 151.525 16.6681 151.112 17.7485L152.98 18.4625C153.329 17.5497 153.682 17.0629 154.05 16.7872C154.402 16.5233 154.888 16.3633 155.702 16.3633V14.3633ZM151.112 17.7482L147.951 26.0129L149.819 26.7274L152.98 18.4627L151.112 17.7482ZM148.885 25.3701H148.783V27.3701H148.885V25.3701ZM149.717 26.0116L146.543 17.747L144.676 18.464L147.85 26.7286L149.717 26.0116ZM146.543 17.7485C146.13 16.6681 145.601 15.7838 144.804 15.1867C143.992 14.5778 143.031 14.3633 141.953 14.3633V16.3633C142.767 16.3633 143.253 16.5233 143.605 16.7872C143.973 17.0629 144.326 17.5497 144.675 18.4625L146.543 17.7485ZM141.953 14.3633C140.644 14.3633 139.483 14.7365 138.653 15.5781C137.824 16.4177 137.462 17.5843 137.462 18.8926H139.462C139.462 17.9411 139.721 17.343 140.077 16.9829C140.43 16.6249 141.015 16.3633 141.953 16.3633V14.3633ZM137.462 18.8926V31.8291H139.462V18.8926H137.462ZM137.462 31.8291C137.462 32.7938 137.722 33.6922 138.347 34.3547C138.98 35.0257 139.858 35.3174 140.81 35.3174V33.3174C140.264 33.3174 139.968 33.1584 139.802 32.982C139.627 32.797 139.462 32.4513 139.462 31.8291H137.462ZM168.168 29.709H167.168V30.709H168.168V29.709ZM168.168 26.7764V25.7764H167.168V26.7764H168.168ZM168.168 22.917H167.168V23.917H168.168V22.917ZM168.168 19.9717V18.9717H167.168V19.9717H168.168ZM165.476 35H173.589V33H165.476V35ZM173.589 35C174.482 35 175.337 34.7604 175.981 34.1904C176.642 33.6057 176.963 32.7781 176.963 31.8545H174.963C174.963 32.302 174.82 32.5471 174.656 32.6924C174.475 32.8524 174.143 33 173.589 33V35ZM176.963 31.8545C176.963 30.9226 176.63 30.0967 175.969 29.5161C175.324 28.9504 174.473 28.709 173.589 28.709V30.709C174.126 30.709 174.462 30.8548 174.649 31.0191C174.819 31.1684 174.963 31.4152 174.963 31.8545H176.963ZM173.589 28.709H168.168V30.709H173.589V28.709ZM169.168 29.709V26.7764H167.168V29.709H169.168ZM168.168 27.7764H173.373V25.7764H168.168V27.7764ZM173.373 27.7764C174.196 27.7764 174.991 27.5558 175.591 27.0181C176.206 26.4667 176.493 25.6929 176.493 24.8467H174.493C174.493 25.2319 174.374 25.4229 174.256 25.5286C174.123 25.6478 173.857 25.7764 173.373 25.7764V27.7764ZM176.493 24.8467C176.493 23.9912 176.193 23.2193 175.578 22.6725C174.978 22.1396 174.188 21.917 173.373 21.917V23.917C173.84 23.917 174.11 24.0435 174.25 24.1676C174.374 24.2778 174.493 24.4707 174.493 24.8467H176.493ZM173.373 21.917H168.168V23.917H173.373V21.917ZM169.168 22.917V19.9717H167.168V22.917H169.168ZM168.168 20.9717H173.589V18.9717H168.168V20.9717ZM173.589 20.9717C174.473 20.9717 175.324 20.7303 175.969 20.1646C176.63 19.584 176.963 18.758 176.963 17.8262H174.963C174.963 18.2654 174.819 18.5122 174.649 18.6616C174.462 18.8259 174.126 18.9717 173.589 18.9717V20.9717ZM176.963 17.8262C176.963 16.9026 176.642 16.075 175.981 15.4903C175.337 14.9203 174.482 14.6807 173.589 14.6807V16.6807C174.143 16.6807 174.475 16.8283 174.656 16.9883C174.82 17.1335 174.963 17.3787 174.963 17.8262H176.963ZM173.589 14.6807H165.476V16.6807H173.589V14.6807ZM165.476 14.6807C164.421 14.6807 163.459 14.9981 162.766 15.7224C162.079 16.4403 161.785 17.4234 161.785 18.499H163.785C163.785 17.772 163.98 17.3458 164.21 17.1052C164.435 16.871 164.818 16.6807 165.476 16.6807V14.6807ZM161.785 18.499V31.1816H163.785V18.499H161.785ZM161.785 31.1816C161.785 32.2573 162.079 33.2403 162.766 33.9582C163.459 34.6825 164.421 35 165.476 35V33C164.818 33 164.435 32.8097 164.21 32.5755C163.98 32.3349 163.785 31.9087 163.785 31.1816H161.785Z" fill="url(#paint2_linear)"/>
</g>
<rect x="0.75" y="0.75" width="193.5" height="46.5" rx="7.25" stroke="url(#paint3_linear)" stroke-width="1.5"/>
<defs>
<filter id="filter0_ddi" x="19.3165" y="13.3633" width="158.646" height="22.9541" filterUnits="userSpaceOnUse" color-interpolation-filters="sRGB">
<feFlood flood-opacity="0" result="BackgroundImageFix"/>
<feColorMatrix in="SourceAlpha" type="matrix" values="0 0 0 0 0 0 0 0 0 0 0 0 0 0 0 0 0 0 127 0" result="hardAlpha"/>
<feOffset dx="-1" dy="-1"/>
<feComposite in2="hardAlpha" operator="out"/>
<feColorMatrix type="matrix" values="0 0 0 0 0 0 0 0 0 0 0 0 0 0 0 0 0 0 0.25 0"/>
<feBlend mode="normal" in2="BackgroundImageFix" result="effect1_dropShadow"/>
<feColorMatrix in="SourceAlpha" type="matrix" values="0 0 0 0 0 0 0 0 0 0 0 0 0 0 0 0 0 0 127 0" result="hardAlpha"/>
<feOffset dx="1" dy="1"/>
<feComposite in2="hardAlpha" operator="out"/>
<feColorMatrix type="matrix" values="0 0 0 0 0 0 0 0 0 0 0 0 0 0 0 0 0 0 0.4 0"/>
<feBlend mode="normal" in2="effect1_dropShadow" result="effect2_dropShadow"/>
<feBlend mode="normal" in="SourceGraphic" in2="effect2_dropShadow" result="shape"/>
<feColorMatrix in="SourceAlpha" type="matrix" values="0 0 0 0 0 0 0 0 0 0 0 0 0 0 0 0 0 0 127 0" result="hardAlpha"/>
<feOffset dx="0.5" dy="0.5"/>
<feGaussianBlur stdDeviation="1"/>
<feComposite in2="hardAlpha" operator="arithmetic" k2="-1" k3="1"/>
<feColorMatrix type="matrix" values="0 0 0 0 0 0 0 0 0 0.321569 0 0 0 0 0.705882 0 0 0 0.4 0"/>
<feBlend mode="normal" in2="shape" result="effect3_innerShadow"/>
</filter>
<linearGradient id="paint0_linear" x1="97.5" y1="0" x2="97.5" y2="48" gradientUnits="userSpaceOnUse">
<stop stop-color="#942B21"/>
<stop offset="1" stop-color="#6B2E23"/>
</linearGradient>
<linearGradient id="paint1_linear" x1="98.5" y1="9" x2="98.5" y2="40" gradientUnits="userSpaceOnUse">
<stop stop-color="#F7E518"/>
<stop offset="1" stop-color="#FAA324"/>
</linearGradient>
<linearGradient id="paint2_linear" x1="98.5" y1="9" x2="98.5" y2="40" gradientUnits="userSpaceOnUse">
<stop stop-color="#F48E1F"/>
<stop offset="1" stop-color="#F57E22"/>
</linearGradient>
<linearGradient id="paint3_linear" x1="97.5" y1="0" x2="97.5" y2="48" gradientUnits="userSpaceOnUse">
<stop stop-color="#FA8B24"/>
<stop offset="1" stop-color="#F5E71B" stop-opacity="0.2"/>
</linearGradient>
</defs>
</svg>
