<svg width="148" height="100" viewBox="0 0 148 100" fill="none" xmlns="http://www.w3.org/2000/svg">
<path fill-rule="evenodd" clip-rule="evenodd" d="M48.72 59.9904C48.72 59.9904 73.4976 57.7553 84.4196 57.9752C95.3416 58.1951 92.897 62.3419 92.897 62.3419C92.897 62.3419 65.6773 70.5813 48.72 59.9904Z" fill="white"/>
<path fill-rule="evenodd" clip-rule="evenodd" d="M55.3039 61.7536C55.7009 61.6863 56.1032 61.6242 56.5107 61.5893C57.1611 61.5199 57.8148 61.4845 58.469 61.4832H62.912C65.0931 61.4862 67.2574 61.8655 69.3095 62.6047C69.3923 62.5206 69.4776 62.4378 69.5591 62.346C69.7328 62.1561 69.9214 61.9805 70.1231 61.8208L70.7336 61.3435C70.9393 61.1883 71.1708 61.0719 71.3907 60.9361C71.8266 60.6528 72.309 60.4795 72.776 60.2699C73.7145 59.9276 74.6962 59.7182 75.6927 59.6478C77.6459 59.4796 79.502 59.8651 81.1757 60.4239C83.3991 61.1832 85.4559 62.3627 87.2343 63.8981C88.6106 63.6032 90.0269 63.241 91.4213 62.8155C92.8951 62.3701 94.3434 61.8442 95.7595 61.24C96.3002 61.0029 96.7745 60.7843 97.1824 60.5843C97.6075 60.3756 98.0753 60.1333 98.5858 59.8573C101.894 58.0064 104.514 55.5889 105.713 52.4949C106.748 49.8382 106.748 46.6084 105.257 42.7047C105.207 42.5737 105.177 42.4359 105.167 42.296C99.79 46.8102 77.3846 56.1658 72.5923 38.4932C72.3812 37.3614 71.7809 36.3391 70.8952 35.6034C70.0095 34.8678 68.8944 34.4651 67.7431 34.4653C65.367 34.4653 63.4811 36.1921 62.8926 38.4932C59.5425 51.5727 45.6585 51.2299 42.4856 42.7034L42.0627 43.9645L41.9566 44.2788L41.879 44.5983L41.7238 45.2373C41.6759 45.4507 41.6087 45.6616 41.5763 45.8763L41.4806 46.523L41.3823 47.1697L41.3474 47.8165L41.3124 48.4632C41.3034 48.6766 41.3293 48.8888 41.3357 49.1009L41.3655 49.7373C41.3771 49.9494 41.4263 50.1551 41.4534 50.3633L41.5479 50.9893C41.5905 51.195 41.6552 51.3968 41.7057 51.5999L41.8673 52.2104L42.0924 52.7989C42.1726 52.9929 42.2295 53.196 42.3265 53.3835L42.6111 53.9488C42.8023 54.3278 43.0183 54.6938 43.2578 55.0444L43.426 55.3147L43.6226 55.5734L44.0106 56.083C44.2693 56.4245 44.5862 56.7297 44.8682 57.0492C45.1502 57.3687 45.502 57.6442 45.8163 57.9456C46.1306 58.247 46.4992 58.4953 46.8381 58.7721L47.9272 59.5301L48.7214 60.0113" fill="white"/>
<path fill-rule="evenodd" clip-rule="evenodd" d="M42.4857 42.7072C45.6585 51.2337 59.5426 51.5765 62.8927 38.497C63.4812 36.1959 65.3671 34.4691 67.7432 34.4691C68.8945 34.4689 70.0096 34.8715 70.8953 35.6072C71.7809 36.3428 72.3813 37.3651 72.5924 38.497C77.3782 56.1696 99.79 46.8139 105.167 42.2998C104.704 36.3666 103.782 31.1449 102.162 26.7303C100.587 22.4373 98.3478 18.9062 95.2202 16.217C95.001 16.0505 94.8338 15.8249 94.7383 15.5667C94.6427 15.3085 94.6228 15.0284 94.6809 14.7593C95.7971 9.60485 98.137 5.9547 100.447 4.04166C100.975 3.59738 101.554 3.21865 102.173 2.91376C100.657 2.70163 98.6608 3.26041 96.6236 4.19558C92.8571 5.92365 89.1319 8.88439 87.6379 10.9061C87.4269 11.1908 87.1184 11.3879 86.7713 11.4597C86.541 11.5068 86.3027 11.4975 86.0767 11.4325L86.0418 11.4222C84.2151 10.9015 82.3514 10.5206 80.467 10.2826C78.3106 10.0081 76.1397 9.86342 73.966 9.84932H73.8599C73.6705 9.84797 73.4832 9.80927 73.3087 9.73544C73.1342 9.66161 72.976 9.5541 72.8432 9.41906C72.7103 9.28402 72.6053 9.12411 72.5343 8.94847C72.4633 8.77282 72.4277 8.58491 72.4294 8.39546C72.4294 8.36313 72.4294 8.3295 72.4294 8.29716C69.0738 8.39084 65.7386 8.85279 62.4839 9.6747C62.5034 9.9807 62.4249 10.285 62.2598 10.5433C62.0946 10.8016 61.8514 11.0006 61.5655 11.1114C61.2796 11.2221 60.9658 11.2388 60.6697 11.1591C60.3736 11.0794 60.1107 10.9074 59.919 10.6681C59.654 10.3389 59.3726 10.0233 59.0756 9.72256C57.2079 7.80952 54.0777 5.52527 50.9436 4.12056C48.4046 2.98102 45.9483 2.43906 44.4285 3.27593C42.6383 4.25508 42.0239 7.23911 42.0782 10.7224C42.1468 14.9456 43.2281 19.7314 44.475 22.956L44.5306 22.8422L44.6923 22.5162L44.8721 22.2187L45.2291 21.6224L45.9457 20.4299C46.0717 20.2278 46.2702 20.0815 46.5006 20.0211C46.731 19.9607 46.9758 19.9908 47.1847 20.1051C47.3936 20.2194 47.5509 20.4093 47.6243 20.6359C47.6977 20.8625 47.6816 21.1085 47.5793 21.3236L46.9624 22.577L46.6558 23.2017L46.5019 23.5135L46.3816 23.8226L45.8978 25.0462L45.6521 25.6567C45.5745 25.8624 45.5124 26.0836 45.4425 26.2957L45.0325 27.5788C44.8895 28.0057 44.7682 28.4396 44.669 28.8788L44.3457 30.1878C44.2163 30.6198 44.1426 31.066 44.0546 31.5097L43.796 32.8394C43.6989 33.2791 43.6356 33.7293 43.5722 34.1781L43.3743 35.5246C43.3044 35.9708 43.2449 36.4197 43.1945 36.8737L43.0302 38.2279C42.985 38.6806 42.9086 39.1334 42.8724 39.5835C42.7883 40.4889 42.6926 41.3943 42.5762 42.2998V42.3204C42.5596 42.4502 42.5302 42.5781 42.4883 42.702L42.4857 42.7072Z" fill="#DCC58F"/>
<path fill-rule="evenodd" clip-rule="evenodd" d="M67.2709 45.5154C68.1763 45.6085 73.9698 41.5885 67.2709 41.635C60.5721 41.5833 66.3655 45.6034 67.2709 45.5154Z" fill="black"/>
<path d="M49.1313 38.5137C48.7913 38.5678 48.4438 38.4845 48.1652 38.2823C47.8866 38.0802 47.6997 37.7756 47.6457 37.4356C47.5917 37.0957 47.6749 36.7482 47.8771 36.4696C48.0793 36.191 48.3838 36.0041 48.7238 35.9501C50.8679 35.6044 53.0651 36.0283 54.9267 37.1468C56.7883 38.2653 58.1942 40.0063 58.8956 42.0617C58.9838 42.3228 58.9867 42.6051 58.904 42.8679C58.8213 43.1307 58.6572 43.3605 58.4354 43.524C58.2136 43.6875 57.9456 43.7763 57.67 43.7776C57.3945 43.7788 57.1257 43.6925 56.9024 43.5311C55.682 42.6468 54.2445 42.1102 52.7431 41.9785C51.2418 41.8469 49.7329 42.1251 48.3772 42.7835C48.2234 42.8576 48.0566 42.9007 47.8862 42.9104C47.7158 42.9201 47.5452 42.8961 47.3841 42.8398C47.2229 42.7836 47.0745 42.6961 46.9472 42.5825C46.8198 42.4688 46.7161 42.3312 46.642 42.1775C46.5678 42.0237 46.5247 41.8569 46.515 41.6865C46.5054 41.5161 46.5293 41.3455 46.5856 41.1844C46.6419 41.0232 46.7293 40.8748 46.843 40.7475C46.9566 40.6201 47.0942 40.5164 47.248 40.4423C49.0251 39.5804 51.0029 39.2174 52.9703 39.392C53.2393 39.4153 53.507 39.4489 53.7735 39.4929L53.5898 39.3791C52.2529 38.572 50.673 38.2653 49.1313 38.5137Z" fill="black"/>
<path d="M86.1905 35.9502C86.5305 36.0042 86.8351 36.1911 87.0373 36.4697C87.2394 36.7482 87.3227 37.0958 87.2686 37.4357C87.2146 37.7757 87.0277 38.0802 86.7491 38.2824C86.4705 38.4846 86.123 38.5678 85.7831 38.5138C84.2425 38.2645 82.6634 38.5688 81.3258 39.3727L81.1421 39.4865C81.4086 39.4425 81.6763 39.4089 81.9454 39.3856C83.9134 39.2133 85.8913 39.579 87.6677 40.4437C87.8214 40.5178 87.959 40.6215 88.0727 40.7488C88.1863 40.8762 88.2737 41.0246 88.33 41.1858C88.3863 41.3469 88.4103 41.5175 88.4006 41.6879C88.3909 41.8583 88.3478 42.0251 88.2737 42.1788C88.1995 42.3326 88.0958 42.4702 87.9685 42.5838C87.8412 42.6975 87.6927 42.7849 87.5316 42.8412C87.3704 42.8975 87.1998 42.9215 87.0294 42.9118C86.859 42.9021 86.6922 42.859 86.5385 42.7848C85.183 42.1264 83.6743 41.8482 82.1731 41.9799C80.672 42.1115 79.2347 42.6481 78.0145 43.5325C77.791 43.6943 77.5219 43.7809 77.246 43.7797C76.9701 43.7786 76.7016 43.6897 76.4795 43.526C76.2574 43.3624 76.093 43.1323 76.0102 42.8691C75.9274 42.6059 75.9304 42.3232 76.0187 42.0618C76.7204 40.0066 78.1263 38.2657 79.9878 37.1473C81.8494 36.0288 84.0465 35.6047 86.1905 35.9502Z" fill="black"/>
<path fill-rule="evenodd" clip-rule="evenodd" d="M73.045 48.106H61.4336C63.8601 54.1697 65.7952 57.0934 67.2387 56.8769C68.8719 56.9002 70.8073 53.9766 73.045 48.106Z" fill="black"/>
<path fill-rule="evenodd" clip-rule="evenodd" d="M63.9467 53.0809C65.2401 55.4091 66.3374 56.506 67.2385 56.3715C68.2362 56.3853 69.3469 55.2992 70.5705 53.1132L70.5369 53.0886C69.6192 52.3001 68.4498 51.8659 67.24 51.8645C66.0301 51.8631 64.8597 52.2945 63.9402 53.0809H63.9467Z" fill="#FF9E9E"/>
<path d="M71.4669 49.1952H63.0749C64.0139 51.4078 64.8655 53.0919 65.6295 54.2474C66.3417 55.3236 66.8324 55.841 67.1014 55.7996C67.172 55.7891 67.2435 55.7857 67.3148 55.7892C67.7339 55.7582 68.3056 55.1951 69.03 54.1C69.7854 52.9591 70.5977 51.3233 71.4669 49.1926V49.1952ZM61.4529 47.0234H73.0604C73.193 47.0245 73.3244 47.049 73.4485 47.0959C73.5819 47.1467 73.7041 47.2233 73.808 47.3213C73.9118 47.4193 73.9954 47.5369 74.0537 47.6672C74.1121 47.7976 74.1442 47.9382 74.1482 48.0809C74.1522 48.2237 74.1281 48.3659 74.0771 48.4993C72.9328 51.5053 71.8549 53.7745 70.8434 55.3068C69.6965 57.04 68.5372 57.9261 67.3653 57.9649C66.2063 58.1071 65.0254 57.2694 63.8225 55.4516C62.8231 53.9409 61.7081 51.6558 60.4776 48.5963C60.3953 48.4303 60.3567 48.246 60.3655 48.0609C60.3743 47.8759 60.4301 47.6961 60.5278 47.5386C60.6254 47.3811 60.7616 47.2512 60.9235 47.161C61.0854 47.0709 61.2676 47.0235 61.4529 47.0234Z" fill="black"/>
<path fill-rule="evenodd" clip-rule="evenodd" d="M97.6997 14.5575C100.067 16.7318 101.947 19.3369 103.431 22.3442C104.435 19.366 105.109 16.2862 105.438 13.1606C105.74 10.2089 105.68 7.37621 104.969 5.44118C104.884 5.34662 104.771 5.28105 104.647 5.25363C104.348 5.21107 104.043 5.25087 103.765 5.36875C103.227 5.5827 102.728 5.88621 102.292 6.26641C100.523 7.73191 98.7151 10.5348 97.6997 14.5523V14.5575Z" fill="#FFB2B2"/>
<path fill-rule="evenodd" clip-rule="evenodd" d="M87.3171 10.6866L87.3275 10.6736C88.1307 9.58843 89.5484 8.24711 91.2622 6.96658C92.8838 5.74915 94.6267 4.70236 96.4632 3.84286C97.4824 3.36203 98.547 2.98419 99.6413 2.71496C100.576 2.49895 101.452 2.42134 102.228 2.53L103.493 2.70591L102.343 3.2621C102.058 3.40055 101.783 3.55739 101.518 3.73162C101.233 3.91801 100.958 4.121 100.697 4.33955C99.5042 5.32776 98.3012 6.79714 97.2691 8.71405C96.2518 10.6432 95.509 12.7051 95.0624 14.8399C95.0194 15.0365 95.033 15.2412 95.1017 15.4303C95.1704 15.6194 95.2913 15.7852 95.4504 15.9083L95.4685 15.9225C97.0612 17.2981 98.4505 18.893 99.5947 20.6592C100.793 22.5206 101.775 24.5125 102.523 26.5962C102.879 27.5663 103.204 28.5808 103.498 29.6397C103.792 30.6986 104.055 31.7873 104.285 32.9057L104.366 33.2938L103.969 33.361C100.778 33.8967 97.5065 33.6753 94.417 32.7145C91.3276 31.7537 88.5071 30.0805 86.1829 27.8297C83.8588 25.5789 82.0959 22.8136 81.0366 19.7565C79.9772 16.6995 79.651 13.4363 80.0841 10.23L80.1358 9.84195L80.5239 9.8911C81.5379 10.0239 82.5136 10.1864 83.451 10.3787C84.3883 10.571 85.2898 10.7926 86.1556 11.0436L86.1918 11.0539C86.2138 11.0604 86.241 11.0669 86.2746 11.0733C86.3037 11.0792 86.333 11.0835 86.3626 11.0863C86.3871 11.0863 86.4208 11.0863 86.4492 11.0927C86.4828 11.0947 86.5165 11.0947 86.5501 11.0927C86.5777 11.0927 86.6049 11.0901 86.6316 11.085C86.6639 11.085 86.6911 11.0746 86.7234 11.0669C86.9627 11.0117 87.1751 10.8744 87.3236 10.6788L87.3171 10.6866Z" fill="#93774F"/>
<path fill-rule="evenodd" clip-rule="evenodd" d="M87.3169 10.6866L87.3273 10.6736C88.1305 9.58843 89.5482 8.24711 91.262 6.96658C92.8836 5.74915 94.6265 4.70236 96.463 3.84286C97.4822 3.36203 98.5468 2.98419 99.6411 2.71496C100.576 2.49895 101.452 2.42134 102.228 2.53L103.493 2.70591L102.343 3.2621C102.058 3.40055 101.782 3.55739 101.518 3.73162C101.232 3.91801 100.958 4.121 100.697 4.33955C99.504 5.32776 98.301 6.79713 97.2689 8.71405C96.2516 10.6432 95.5088 12.7051 95.0622 14.8399C95.0192 15.0365 95.0328 15.2412 95.1015 15.4303C95.1702 15.6194 95.2911 15.7852 95.4502 15.9083L95.4683 15.9225C97.061 17.2981 98.4503 18.893 99.5945 20.6592C100.793 22.5206 101.775 24.5125 102.523 26.5962C102.879 27.5663 103.204 28.5808 103.498 29.6397C103.792 30.6986 104.054 31.7873 104.285 32.9057L104.366 33.2938L103.969 33.361C102.223 33.6549 100.446 33.7227 98.6826 33.5628C96.4837 20.178 90.57 13.5736 80.0813 10.2261C80.1007 10.0968 80.1227 9.96742 80.146 9.84583L80.5146 9.89369C81.5287 10.0265 82.5044 10.189 83.4417 10.3813C84.379 10.5736 85.2806 10.7952 86.1464 11.0462L86.1826 11.0565C86.2046 11.063 86.2317 11.0694 86.2653 11.0759C86.2944 11.0818 86.3238 11.0861 86.3533 11.0889C86.3779 11.0889 86.4115 11.0889 86.44 11.0953C86.4736 11.0973 86.5073 11.0973 86.5409 11.0953C86.5684 11.0953 86.5956 11.0927 86.6223 11.0876C86.6547 11.0876 86.6819 11.0772 86.7142 11.0694C86.9535 11.0142 87.1658 10.8769 87.3143 10.6814L87.3169 10.6866Z" fill="#856A44"/>
<path fill-rule="evenodd" clip-rule="evenodd" d="M73.9258 9.85317L73.1898 9.90103C72.7203 9.92819 72.0477 9.97476 71.2406 9.99933C70.8396 10.0174 70.3921 10.0226 69.9601 10.0782L68.5722 10.1998C68.091 10.2451 67.5917 10.2567 67.0847 10.3292L65.5455 10.5297C65.0281 10.6073 64.5029 10.6357 64.0075 10.7521L62.5369 11.0509C62.2976 11.0975 62.0609 11.1415 61.8306 11.1803L61.6586 11.2139L61.6159 11.2217L61.7323 11.1803H61.7207L61.7 11.188L61.6159 11.2178L61.2835 11.3329L60.0508 11.7636C59.717 11.8687 59.3915 11.9984 59.0768 12.1517C58.7988 12.281 58.5595 12.3845 58.3577 12.475L57.7187 12.7479L57.6191 12.7919C57.4023 12.8847 57.1585 12.8926 56.9361 12.8141C56.7138 12.7356 56.529 12.5764 56.4185 12.3681C56.308 12.1597 56.2798 11.9175 56.3395 11.6893C56.3992 11.4612 56.5424 11.2638 56.7408 11.1363L57.407 10.7094L58.1831 10.227C58.5049 10.0153 58.8411 9.82639 59.1894 9.66174L60.3703 9.10426L60.6885 8.95421L60.7687 8.91541L60.7894 8.90636H60.7997L60.9291 8.86238L60.9744 8.84815L61.1529 8.79382L61.8901 8.57135L63.4423 8.1264C63.97 7.96342 64.5197 7.88969 65.063 7.76681L66.6928 7.43957C67.2334 7.34514 67.778 7.29729 68.2992 7.23261L69.8074 7.07093C70.2951 7.01531 70.7245 7.01272 71.1293 6.9972C71.9365 6.96487 72.6091 6.96228 73.0799 6.95581H73.8236C74.1987 6.95578 74.5591 7.10121 74.8291 7.36149C75.0992 7.62177 75.2577 7.97663 75.2714 8.35142C75.2852 8.72622 75.153 9.09173 74.9028 9.37108C74.6526 9.65044 74.3037 9.82186 73.9297 9.84929L73.9258 9.85317Z" fill="black"/>
<path fill-rule="evenodd" clip-rule="evenodd" d="M47.5793 21.3236L46.9623 22.577L46.6557 23.2017L46.5018 23.5134L46.3815 23.8226L45.8978 25.0462L45.652 25.6567C45.5744 25.8624 45.5123 26.0835 45.4425 26.2957L45.0324 27.5788C44.8894 28.0057 44.7681 28.4395 44.669 28.8787L44.3456 30.1877C44.2163 30.6197 44.1425 31.066 44.0546 31.5096L43.7959 32.8393C43.7002 33.2791 43.6368 33.7292 43.5734 34.178L43.3755 35.5232C43.3057 35.9708 43.2462 36.4196 43.1957 36.8736L43.0302 38.2279C42.9849 38.6806 42.9086 39.1333 42.8724 39.5834C42.7883 40.4889 42.6926 41.3943 42.5762 42.2997V42.3204C42.5596 42.4502 42.5301 42.578 42.4882 42.702L42.0652 43.9631L41.9592 44.2774L41.8816 44.5969L41.7263 45.2359C41.6785 45.4493 41.6112 45.6601 41.5789 45.8748L41.4832 46.5216L41.3849 47.1683L41.35 47.815L41.315 48.4618C41.306 48.6752 41.3318 48.8873 41.3383 49.0994L41.3681 49.7358C41.3797 49.948 41.4288 50.1536 41.456 50.3619L41.5504 50.9879C41.5931 51.1936 41.6578 51.3953 41.7082 51.5984L41.8699 52.2089L42.095 52.7975C42.1752 52.9915 42.2321 53.1945 42.3291 53.3834L42.6137 53.9474C42.8048 54.3264 43.0209 54.6924 43.2604 55.0429L43.4285 55.312L43.6252 55.5706L44.0132 56.0803C44.2719 56.4217 44.5888 56.727 44.8708 57.0465C45.1527 57.366 45.5046 57.6415 45.8176 57.9429C46.1526 58.2248 46.5018 58.4926 46.842 58.7694L47.9285 59.5274L49.0719 60.2194L49.1457 60.2646C49.4741 60.4634 49.7102 60.7846 49.8019 61.1574C49.8936 61.5302 49.8334 61.9242 49.6346 62.2527C49.5362 62.4153 49.4067 62.557 49.2535 62.6696C49.1003 62.7822 48.9264 62.8635 48.7418 62.9089C48.369 63.0006 47.975 62.9404 47.6465 62.7416L46.3531 61.9655L45.1062 61.0963C44.7091 60.7768 44.3055 60.4651 43.9149 60.1353C43.5424 59.7822 43.1543 59.4459 42.796 59.0759C42.4378 58.706 42.0808 58.3296 41.7613 57.9118L41.2853 57.2922L41.0486 56.9818L40.8364 56.6494C40.5425 56.2144 40.2764 55.7612 40.0397 55.2925L39.6891 54.5656C39.5701 54.3302 39.4925 54.0754 39.3929 53.8309L39.1123 53.0898L38.9053 52.324C38.8406 52.0654 38.7656 51.8144 38.7113 51.557L38.5897 50.7809C38.5548 50.5223 38.4992 50.2636 38.4823 50.0049L38.4435 49.2197C38.4345 48.961 38.4086 48.6946 38.4177 48.4346L38.4565 47.6585C38.472 47.3998 38.4823 47.1411 38.503 46.8824L38.6169 46.118L38.732 45.3536C38.7721 45.0949 38.8471 44.8556 38.9027 44.6059L39.0851 43.8635L39.1769 43.491L39.2972 43.1314L39.781 41.6944L39.6904 42.0966C39.7486 41.1576 39.8275 40.2198 39.9168 39.282C39.9517 38.8138 40.0241 38.3456 40.0914 37.8786L40.2958 36.4765L40.3993 35.7768L40.5389 35.0783L40.8196 33.6852C40.9115 33.2209 41.002 32.7565 41.1288 32.296L41.478 30.9146C41.5957 30.4542 41.7044 29.9924 41.8583 29.5397L42.2916 28.1764C42.4339 27.7224 42.5813 27.2709 42.7676 26.8273L43.2953 25.4937C43.3859 25.2712 43.4648 25.0501 43.5644 24.8289L43.8826 24.1679L44.5293 22.8576L44.691 22.5317L44.8708 22.2342L45.2278 21.6379L45.9443 20.4453C46.0735 20.2535 46.2694 20.1165 46.4939 20.061C46.7183 20.0054 46.9555 20.0353 47.1592 20.1447C47.3629 20.2542 47.5187 20.4354 47.5963 20.6532C47.674 20.8711 47.6679 21.11 47.5793 21.3236Z" fill="black"/>
<path d="M73.8598 9.84692C73.4773 9.84384 73.1117 9.68893 72.8434 9.41628C72.5751 9.14363 72.4262 8.77557 72.4292 8.39307C72.4323 8.01057 72.5872 7.64497 72.8599 7.37668C73.1325 7.1084 73.5006 6.95941 73.8831 6.9625C76.2094 6.97343 78.5328 7.12548 80.8407 7.4178C82.8823 7.67707 84.9012 8.09175 86.8798 8.65823C87.2476 8.76475 87.558 9.01299 87.7427 9.34834C87.9274 9.6837 87.9713 10.0787 87.8648 10.4464C87.7583 10.8142 87.5101 11.1246 87.1747 11.3093C86.8393 11.494 86.4443 11.5379 86.0766 11.4314C84.2389 10.9049 82.3635 10.5205 80.4668 10.2815C78.2753 10.0031 76.0689 9.858 73.8598 9.84692ZM107.223 3.62665C107.457 3.92353 107.565 4.29995 107.525 4.67555C107.485 5.05116 107.3 5.39617 107.008 5.63693C106.717 5.87769 106.344 5.99512 105.967 5.96415C105.591 5.93317 105.241 5.75624 104.994 5.47113C104.905 5.3625 104.783 5.28683 104.647 5.25642C104.348 5.21386 104.043 5.25366 103.765 5.37154C103.227 5.58549 102.728 5.889 102.291 6.2692C100.523 7.7334 98.715 10.5376 97.6997 14.5551C100.915 17.5094 103.236 21.2592 104.877 25.7333C106.577 30.3626 107.547 35.768 108.036 41.8731C109.717 46.4183 109.668 50.2806 108.406 53.5389C106.932 57.3391 103.841 60.2325 99.971 62.3952L99.9542 62.4043C99.5058 62.6474 99.0043 62.9061 98.4499 63.1803C97.8808 63.4589 97.369 63.6982 96.9145 63.8982H96.9029C95.3868 64.5428 93.8367 65.1042 92.2594 65.5797C90.5779 66.0971 88.855 66.5214 87.1967 66.8538C87.011 66.8909 86.8198 66.8911 86.634 66.8543C86.4482 66.8175 86.2714 66.7445 86.1138 66.6394C85.7956 66.4271 85.5747 66.0971 85.4997 65.722C85.4248 65.3469 85.5019 64.9573 85.7141 64.6391C85.9264 64.3208 86.2564 64.0999 86.6315 64.025C88.1953 63.712 89.8225 63.3058 91.4173 62.8182C92.8911 62.3728 94.3394 61.8468 95.7556 61.2427C96.2963 61.0056 96.7705 60.787 97.1784 60.587C97.6035 60.3783 98.0713 60.136 98.5818 59.86C101.89 58.0091 104.51 55.5916 105.709 52.4976C106.744 49.8409 106.744 46.6111 105.254 42.7074C105.204 42.5762 105.173 42.4385 105.163 42.2987C104.7 36.3642 103.778 31.1438 102.157 26.7292C100.583 22.4362 98.3438 18.9051 95.2162 16.2159C94.997 16.0494 94.8298 15.8238 94.7342 15.5656C94.6387 15.3074 94.6188 15.0273 94.6768 14.7582C95.7931 9.60375 98.133 5.9536 100.443 4.04056C101.135 3.44944 101.922 2.98092 102.771 2.65526C103.641 2.34095 104.484 2.26722 105.248 2.42761C106.021 2.59138 106.715 3.01445 107.214 3.62665H107.223Z" fill="black"/>
<path d="M104.703 26.7019C104.611 26.8686 104.488 27.0157 104.34 27.1347C104.191 27.2538 104.021 27.3425 103.839 27.3957C103.656 27.449 103.465 27.4658 103.276 27.4452C103.087 27.4245 102.904 27.3669 102.737 27.2755C102.57 27.1841 102.423 27.0608 102.304 26.9126C102.185 26.7643 102.097 26.5941 102.043 26.4116C101.99 26.2291 101.973 26.0379 101.994 25.8489C102.014 25.6599 102.072 25.4768 102.163 25.3101L102.223 25.204C103.498 22.8292 104.95 17.9076 105.433 13.1645C105.89 8.69813 105.52 4.49825 103.313 3.2811L103.24 3.23971C101.68 2.43776 99.182 3.01982 96.6184 4.19558C92.8518 5.92364 89.1266 8.88439 87.6327 10.9061C87.4046 11.2136 87.0636 11.4179 86.6848 11.4741C86.306 11.5302 85.9205 11.4336 85.6129 11.2055C85.3054 10.9774 85.1011 10.6364 85.0449 10.2577C84.9888 9.87887 85.0854 9.49331 85.3135 9.18576C87.0338 6.85753 91.2298 3.49452 95.4193 1.56984C98.7267 0.0526083 102.119 -0.601884 104.591 0.688993L104.705 0.747199C108.16 2.65635 108.869 7.95697 108.307 13.4477C107.79 18.5569 106.181 23.9351 104.763 26.5764L104.697 26.7057L104.703 26.7019Z" fill="black"/>
<path d="M45.3803 24.9738C45.5633 25.31 45.6053 25.7051 45.497 26.0722C45.3887 26.4393 45.139 26.7484 44.8028 26.9314C44.4666 27.1144 44.0715 27.1564 43.7044 27.0481C43.3372 26.9398 43.0282 26.6901 42.8451 26.3539C41.1003 23.1409 39.2855 16.4395 39.1976 10.7664C39.1264 6.28967 40.1392 2.33296 43.0521 0.739416C45.4851 -0.592852 48.8378 0.00860878 52.1244 1.48316C56.195 3.30694 60.3069 6.52767 62.1747 8.86755C62.4133 9.16617 62.5234 9.54734 62.481 9.92721C62.4385 10.3071 62.2469 10.6545 61.9483 10.8931C61.6497 11.1317 61.2685 11.2419 60.8887 11.1994C60.5088 11.157 60.1613 10.9654 59.9227 10.6668C58.2852 8.61791 54.6195 5.76582 50.9474 4.11924C48.4083 2.9797 45.952 2.43774 44.4322 3.27461C42.6421 4.25376 42.0277 7.23778 42.082 10.7211C42.1635 15.9544 43.8049 22.0712 45.379 24.9738H45.3803Z" fill="black"/>
<path fill-rule="evenodd" clip-rule="evenodd" d="M78.7193 65.7786C80.0955 65.485 90.0267 63.2473 91.4211 62.8218C92.8949 62.3764 94.3432 61.8504 95.7594 61.2463C96.3001 61.0092 96.7743 60.7906 97.1822 60.5905C97.6073 60.3819 98.0751 60.1396 98.5856 59.8636C101.894 58.0127 104.514 55.5952 105.713 52.5012C106.747 49.8444 106.747 46.6147 105.257 42.711C105.207 42.5799 105.177 42.4422 105.167 42.3022C104.171 43.1391 102.589 44.1416 100.64 45.1078C101.902 48.4337 100.356 51.7083 96.0013 54.9316C91.0033 58.0243 86.3624 63.2098 72.4253 65.4488" fill="#E3DFDF"/>
<path fill-rule="evenodd" clip-rule="evenodd" d="M100.644 45.1051C102.584 44.1389 104.171 43.1365 105.171 42.2996C104.954 39.3 104.56 36.3159 103.99 33.363H103.976C102.23 33.6569 100.453 33.7247 98.6904 33.5648C99.19 36.7444 99.4924 39.9519 99.5959 43.1688C100.025 43.767 100.377 44.4167 100.645 45.1025L100.644 45.1051Z" fill="#CCB785"/>
<path fill-rule="evenodd" clip-rule="evenodd" d="M45.2239 21.6225C42.8094 9.67867 43.3207 3.43512 46.7579 2.89186C45.8615 2.81943 45.0661 2.92808 44.4297 3.2799C42.6395 4.25906 42.0251 7.24308 42.0794 10.7264C42.1467 14.9457 43.228 19.7315 44.4749 22.9561L44.5306 22.8423L44.6922 22.5163L44.872 22.2188L45.229 21.6225H45.2239Z" fill="#F7E4B7"/>
<path fill-rule="evenodd" clip-rule="evenodd" d="M44.3455 30.1878C44.2161 30.6198 44.1424 31.0661 44.0544 31.5097L43.7957 32.8394C43.7 33.2792 43.6366 33.7293 43.5733 34.1782L43.3754 35.5234C43.3055 35.9709 43.246 36.4197 43.1956 36.8737L43.03 38.228C42.9847 38.6807 42.9084 39.1334 42.8722 39.5835C42.7881 40.489 42.6924 41.3944 42.576 42.2998V42.3205C42.5594 42.4503 42.5299 42.5781 42.488 42.7021C42.7963 43.5349 43.2228 44.319 43.7543 45.0303C43.8526 37.2454 45.1276 29.3419 47.5791 21.3198L46.9621 22.5771L46.6556 23.2018L46.5017 23.5135L46.3814 23.8227L45.8976 25.0463L45.6518 25.6568C45.5742 25.8625 45.5122 26.0837 45.4423 26.2958L45.0323 27.5789C44.8892 28.0058 44.7679 28.4397 44.6688 28.8788L44.3455 30.1878Z" fill="#F7E4B7"/>
<path fill-rule="evenodd" clip-rule="evenodd" d="M101.205 18.5673C104.289 10.0304 104.786 5.82667 102.698 5.95602C102.568 6.05174 102.429 6.15651 102.292 6.27033C100.523 7.73583 98.7151 10.5388 97.6997 14.5563C99.0097 15.7622 100.185 17.1066 101.205 18.566V18.5673Z" fill="#F59F9F"/>
<path fill-rule="evenodd" clip-rule="evenodd" d="M87.3791 11.1751C92.5478 7.36112 96.9025 4.9833 100.443 4.04166C100.971 3.59738 101.55 3.21865 102.169 2.91376C100.653 2.70163 98.6568 3.26041 96.6196 4.19558C92.8531 5.92365 89.1279 8.88439 87.6339 10.9061C87.5592 11.0062 87.4723 11.0965 87.3752 11.1751H87.3791Z" fill="#93774F"/>
<path fill-rule="evenodd" clip-rule="evenodd" d="M51.0199 46.1775C53.7543 46.4362 55.8743 47.6844 55.754 48.9805C55.6337 50.2765 53.321 51.1198 50.5801 50.8663C47.8393 50.6128 45.7322 49.3581 45.8512 48.0582C45.9702 46.7583 48.2855 45.9188 51.0251 46.1723L51.0199 46.1775Z" fill="#F79191"/>
<path d="M49.5039 47.0234C49.5254 46.9878 49.5539 46.9571 49.5877 46.9329C49.6215 46.9087 49.6599 46.8917 49.7004 46.8829C49.741 46.8741 49.783 46.8737 49.8238 46.8816C49.8645 46.8896 49.9032 46.9058 49.9375 46.9293C49.9718 46.9527 50.0009 46.9829 50.0232 47.018C50.0454 47.0531 50.0602 47.0924 50.0667 47.1334C50.0732 47.1744 50.0713 47.2163 50.061 47.2566C50.0508 47.2968 50.0324 47.3346 50.0071 47.3675L48.6683 49.3154C48.6469 49.351 48.6184 49.3818 48.5846 49.4059C48.5508 49.4301 48.5124 49.4471 48.4718 49.4559C48.4312 49.4647 48.3893 49.4651 48.3485 49.4572C48.3078 49.4492 48.2691 49.433 48.2348 49.4096C48.2005 49.3861 48.1713 49.3559 48.1491 49.3208C48.1269 49.2857 48.1121 49.2465 48.1056 49.2054C48.0991 49.1644 48.101 49.1225 48.1112 49.0823C48.1215 49.042 48.1399 49.0043 48.1652 48.9714L49.5039 47.0234Z" fill="white"/>
<path d="M51.0508 47.3597C51.0724 47.3257 51.1004 47.2963 51.1333 47.2732C51.1663 47.2501 51.2034 47.2337 51.2427 47.2249C51.282 47.2161 51.3226 47.2152 51.3622 47.2221C51.4019 47.229 51.4398 47.2437 51.4737 47.2653C51.5077 47.2869 51.5371 47.3149 51.5602 47.3478C51.5834 47.3808 51.5998 47.4179 51.6085 47.4572C51.6173 47.4965 51.6183 47.5371 51.6113 47.5767C51.6044 47.6164 51.5897 47.6543 51.5682 47.6882L50.1298 49.9259C50.1083 49.9599 50.0802 49.9893 50.0473 50.0124C50.0143 50.0356 49.9772 50.052 49.9379 50.0607C49.8986 50.0695 49.858 50.0705 49.8184 50.0635C49.7787 50.0566 49.7408 50.0419 49.7069 50.0204C49.6729 49.9988 49.6435 49.9707 49.6204 49.9378C49.5972 49.9049 49.5808 49.8677 49.5721 49.8284C49.5633 49.7892 49.5623 49.7485 49.5693 49.7089C49.5762 49.6693 49.5909 49.6314 49.6124 49.5974L51.0508 47.3597Z" fill="white"/>
<path d="M52.7724 47.7026C52.7962 47.6703 52.8261 47.643 52.8604 47.6223C52.8947 47.6016 52.9328 47.5878 52.9724 47.5818C53.012 47.5758 53.0525 47.5777 53.0914 47.5873C53.1303 47.5969 53.167 47.6141 53.1992 47.6379C53.2315 47.6617 53.2588 47.6916 53.2795 47.7259C53.3002 47.7602 53.314 47.7983 53.32 47.8379C53.326 47.8775 53.3241 47.918 53.3145 47.9569C53.3049 47.9958 53.2877 48.0324 53.2639 48.0647L51.5022 50.4512C51.4784 50.4834 51.4485 50.5107 51.4142 50.5314C51.3799 50.5521 51.3418 50.5659 51.3022 50.5719C51.2625 50.5779 51.2221 50.576 51.1832 50.5664C51.1443 50.5568 51.1076 50.5396 51.0754 50.5158C51.0431 50.4921 51.0158 50.4622 50.9951 50.4278C50.9744 50.3935 50.9606 50.3554 50.9546 50.3158C50.9486 50.2762 50.9505 50.2357 50.9601 50.1968C50.9697 50.1579 50.9869 50.1213 51.0107 50.089L52.7724 47.7026Z" fill="white"/>
<path fill-rule="evenodd" clip-rule="evenodd" d="M83.4587 46.1814C80.7243 46.4336 78.6043 47.6883 78.7246 48.9844C78.8449 50.2804 81.1576 51.1237 83.8985 50.8702C86.6393 50.6167 88.7528 49.3621 88.6338 48.0673C88.5148 46.7725 86.1995 45.9279 83.46 46.1814H83.4587Z" fill="#F79191"/>
<path d="M84.9746 47.0326C84.927 46.9708 84.8576 46.9296 84.7806 46.9174C84.7036 46.9051 84.6248 46.9228 84.5604 46.9669C84.4961 47.0109 84.451 47.0779 84.4344 47.1541C84.4179 47.2303 84.4311 47.3099 84.4715 47.3767L85.8102 49.3246C85.8317 49.3602 85.8602 49.391 85.894 49.4151C85.9278 49.4393 85.9661 49.4563 86.0067 49.4651C86.0473 49.4739 86.0893 49.4743 86.13 49.4664C86.1708 49.4584 86.2095 49.4422 86.2438 49.4188C86.2781 49.3953 86.3072 49.3651 86.3294 49.33C86.3516 49.2949 86.3665 49.2557 86.373 49.2147C86.3795 49.1736 86.3775 49.1317 86.3673 49.0915C86.357 49.0512 86.3387 49.0135 86.3133 48.9806L84.9746 47.0326Z" fill="white"/>
<path d="M83.4277 47.3636C83.3841 47.295 83.3151 47.2465 83.2358 47.2288C83.1564 47.2111 83.0733 47.2256 83.0047 47.2692C82.9361 47.3128 82.8876 47.3818 82.8699 47.4611C82.8522 47.5404 82.8667 47.6235 82.9103 47.6921L84.3486 49.9298C84.3922 49.9984 84.4612 50.0469 84.5406 50.0647C84.6199 50.0824 84.703 50.0678 84.7716 50.0243C84.8402 49.9807 84.8887 49.9117 84.9064 49.8323C84.9241 49.753 84.9096 49.6699 84.866 49.6013L83.4277 47.3636Z" fill="white"/>
<path d="M81.706 47.7065C81.6823 47.6742 81.6524 47.6469 81.6181 47.6262C81.5837 47.6055 81.5457 47.5917 81.506 47.5857C81.4664 47.5797 81.426 47.5816 81.387 47.5912C81.3481 47.6008 81.3115 47.618 81.2792 47.6418C81.2469 47.6656 81.2197 47.6955 81.1989 47.7298C81.1782 47.7641 81.1645 47.8022 81.1585 47.8418C81.1525 47.8814 81.1543 47.9219 81.164 47.9608C81.1736 47.9997 81.1908 48.0364 81.2145 48.0686L82.9762 50.4551C82.999 50.4896 83.0286 50.5191 83.0632 50.5418C83.0977 50.5645 83.1365 50.58 83.1772 50.5873C83.2179 50.5946 83.2597 50.5935 83.3 50.5841C83.3403 50.5748 83.3782 50.5573 83.4116 50.5328C83.4449 50.5084 83.4729 50.4774 83.4939 50.4417C83.5149 50.4061 83.5284 50.3666 83.5337 50.3256C83.539 50.2845 83.5358 50.2429 83.5245 50.2031C83.5131 50.1633 83.4938 50.1263 83.4677 50.0942L81.706 47.7065Z" fill="white"/>
<path fill-rule="evenodd" clip-rule="evenodd" d="M49.1417 60.2466C49.1417 60.2466 60.1361 68.896 87.2342 63.9019L88.3983 66.5988C88.3983 66.5988 61.6159 72.3185 47.6387 62.7184L49.1417 60.2466Z" fill="black"/>
<path d="M17.4294 94.8534C17.6294 94.8519 17.8273 94.8929 18.0102 94.9737C18.1859 95.0517 18.3465 95.1598 18.4849 95.2932C18.6265 95.4313 18.7389 95.5965 18.8156 95.7789C18.8922 95.9613 18.9315 96.1572 18.9311 96.3551C18.9292 96.5568 18.8868 96.756 18.8066 96.941C18.7264 97.1261 18.61 97.2932 18.4642 97.4325C16.3576 99.114 13.9815 99.9548 11.3359 99.9548C8.19798 99.9548 5.52482 98.8498 3.31644 96.6397C1.10807 94.4296 0.00258693 91.7564 0 88.6202C0 85.4934 1.10548 82.8246 3.31644 80.6136C5.5274 78.4027 8.20056 77.2924 11.3359 77.283C14.0186 77.283 16.4417 78.1664 18.6052 79.9333C18.7399 80.0685 18.8448 80.2304 18.9132 80.4087C18.9816 80.5869 19.0119 80.7774 19.0023 80.968C19.005 81.172 18.9663 81.3745 18.8885 81.563C18.8147 81.7407 18.7066 81.902 18.5703 82.0377C18.4326 82.1754 18.2685 82.2836 18.0878 82.3559C17.9024 82.4302 17.7042 82.4671 17.5045 82.4646C17.1184 82.4576 16.749 82.3057 16.4697 82.039C15.7566 81.4753 14.9544 81.0346 14.0962 80.7352C13.2095 80.43 12.2775 80.277 11.3398 80.2825C9.03399 80.2825 7.06404 81.1017 5.42996 82.7401C3.81399 84.3561 3.00601 86.3165 3.00601 88.6215C3.00601 90.9264 3.81399 92.8916 5.42996 94.5171C7.05197 96.1399 9.02062 96.9514 11.3359 96.9514C13.2359 96.9775 15.0836 96.3295 16.5512 95.1224C16.8109 94.9478 17.1165 94.8542 17.4294 94.8534Z" fill="black"/>
<path d="M23.9484 98.4674C23.9501 98.6633 23.9128 98.8576 23.8386 99.039C23.7643 99.2203 23.6547 99.385 23.5161 99.5235C23.3775 99.662 23.2127 99.7715 23.0313 99.8455C22.8499 99.9196 22.6556 99.9568 22.4596 99.9549C22.265 99.9547 22.0723 99.916 21.8927 99.841C21.7131 99.766 21.5502 99.6562 21.4132 99.518C21.2762 99.3797 21.168 99.2157 21.0948 99.0353C21.0215 98.855 20.9847 98.662 20.9864 98.4674V78.7679C20.9825 78.5718 21.0188 78.377 21.0931 78.1954C21.1674 78.0139 21.2781 77.8495 21.4184 77.7125C21.5551 77.5755 21.7175 77.4668 21.8963 77.3926C22.0751 77.3184 22.2667 77.2803 22.4603 77.2803C22.6538 77.2803 22.8455 77.3184 23.0243 77.3926C23.203 77.4668 23.3654 77.5755 23.5022 77.7125C23.6427 77.8501 23.7546 78.0142 23.8312 78.1954C23.9078 78.3766 23.9476 78.5712 23.9484 78.7679V85.569C25.2039 84.5963 26.6824 84.1099 28.3837 84.1099C29.3576 84.1059 30.3217 84.3041 31.2151 84.692C32.0922 85.069 32.892 85.6049 33.5744 86.2726C34.2597 86.9455 34.8087 87.7444 35.1912 88.6254C35.589 89.5343 35.7917 90.5165 35.7862 91.5085V98.4674C35.7851 98.664 35.7451 98.8585 35.6685 99.0397C35.5919 99.2208 35.4802 99.385 35.3399 99.5229C35.1329 99.7294 34.8691 99.8696 34.5821 99.9259C34.2951 99.9821 33.9979 99.9517 33.7282 99.8385C33.4585 99.7254 33.2286 99.5346 33.0676 99.2905C32.9066 99.0463 32.8219 98.7598 32.8242 98.4674V91.5085C32.8267 90.9188 32.706 90.335 32.4697 89.7947C32.0121 88.7322 31.1652 87.8853 30.1027 87.4277C29.5621 87.1906 28.9778 87.0699 28.3876 87.0733C27.7959 87.0685 27.2097 87.1866 26.666 87.4199C25.6013 87.8783 24.7538 88.7286 24.2989 89.7947C24.067 90.3361 23.949 90.9195 23.9523 91.5085L23.9484 98.4674Z" fill="black"/>
<path d="M42.0183 81.262C42.018 81.665 41.878 82.0554 41.6221 82.3667C41.3663 82.6781 41.0104 82.8911 40.6151 82.9696C40.2198 83.048 39.8096 82.987 39.4542 82.7969C39.0989 82.6069 38.8204 82.2995 38.6662 81.9271C38.5121 81.5548 38.4917 81.1405 38.6087 80.7549C38.7257 80.3692 38.9727 80.0361 39.3078 79.8121C39.6428 79.5882 40.0451 79.4873 40.4462 79.5266C40.8472 79.566 41.2223 79.7432 41.5074 80.028C41.6723 80.1879 41.8027 80.3799 41.8906 80.5921C41.9785 80.8043 42.0219 81.0323 42.0183 81.262ZM38.8001 98.4651V85.5679C38.7965 85.3717 38.833 85.1769 38.9076 84.9953C38.9821 84.8138 39.093 84.6495 39.2335 84.5125C39.3701 84.3755 39.5324 84.2668 39.711 84.1927C39.8897 84.1185 40.0812 84.0804 40.2747 84.0804C40.4681 84.0804 40.6597 84.1185 40.8384 84.1927C41.017 84.2668 41.1793 84.3755 41.3159 84.5125C41.4565 84.6501 41.5684 84.8142 41.645 84.9954C41.7216 85.1766 41.7614 85.3712 41.7622 85.5679V98.4651C41.7617 98.6618 41.722 98.8565 41.6454 99.0377C41.5687 99.219 41.4568 99.3831 41.3159 99.5205C41.1793 99.6575 41.017 99.7661 40.8384 99.8403C40.6597 99.9144 40.4681 99.9526 40.2747 99.9526C40.0812 99.9526 39.8897 99.9144 39.711 99.8403C39.5324 99.7661 39.3701 99.6575 39.2335 99.5205C39.093 99.3838 38.982 99.2197 38.9075 99.0384C38.833 98.857 38.7964 98.6623 38.8001 98.4663V98.4651Z" fill="black"/>
<path d="M47.7716 85.8404C49.1789 84.6685 50.8371 84.0826 52.7463 84.0826C54.9193 84.0826 56.7901 84.8587 58.3586 86.4108C59.1062 87.1373 59.6989 88.0076 60.1009 88.9693C60.4943 89.9389 60.6917 90.9769 60.6817 92.0232C60.6817 94.2341 59.9056 96.1049 58.3534 97.6355C56.784 99.1877 54.9133 99.9638 52.7411 99.9638C51.6988 99.9641 50.6667 99.7591 49.7037 99.3604C48.7408 98.9618 47.8657 98.3773 47.1287 97.6404C46.3917 96.9035 45.807 96.0285 45.4082 95.0656C45.0094 94.1027 44.8042 93.0706 44.8044 92.0284V78.7535C44.7973 78.558 44.8306 78.3632 44.9023 78.1812C44.9739 77.9992 45.0823 77.8338 45.2206 77.6956C45.359 77.5573 45.5244 77.4491 45.7065 77.3776C45.8886 77.3062 46.0835 77.273 46.2789 77.2803C46.4738 77.2761 46.6676 77.311 46.8488 77.3827C47.0301 77.4545 47.1952 77.5617 47.3344 77.6981C47.4761 77.8341 47.5877 77.9983 47.6621 78.1801C47.7365 78.3619 47.7721 78.5572 47.7664 78.7535L47.7716 85.8404ZM52.7463 96.994C53.4136 96.9978 54.0743 96.8625 54.6865 96.5969C55.2769 96.3413 55.8133 95.9756 56.2671 95.5194C56.7164 95.0633 57.0766 94.5272 57.329 93.9388C57.5868 93.3315 57.7196 92.6784 57.7196 92.0187C57.7196 91.3589 57.5868 90.7059 57.329 90.0985C57.0766 89.5101 56.7164 88.974 56.2671 88.5179C55.8133 88.0621 55.2769 87.6969 54.6865 87.4417C54.0702 87.1797 53.4075 87.0447 52.7379 87.0447C52.0682 87.0447 51.4055 87.1797 50.7893 87.4417C50.2012 87.6941 49.6673 88.0573 49.2164 88.5114C48.7667 88.9677 48.4081 89.5054 48.1596 90.0959C47.9027 90.706 47.7703 91.3612 47.7703 92.0232C47.7703 92.6851 47.9027 93.3404 48.1596 93.9504C48.4096 94.5385 48.7686 95.0739 49.2177 95.5285C49.6689 95.9822 50.2028 96.3453 50.7906 96.5982C51.4078 96.8647 52.0739 96.9995 52.7463 96.994Z" fill="black"/>
<path d="M66.9601 81.262C66.9593 81.6643 66.819 82.0539 66.5632 82.3644C66.3074 82.675 65.9518 82.8872 65.5571 82.9651C65.1624 83.0429 64.7529 82.9816 64.3983 82.7915C64.0437 82.6014 63.766 82.2942 63.6124 81.9224C63.4589 81.5505 63.4389 81.1369 63.556 80.752C63.6731 80.3671 63.92 80.0346 64.2546 79.8113C64.5892 79.5879 64.9909 79.4875 65.3913 79.527C65.7917 79.5665 66.166 79.7436 66.4505 80.028C66.6152 80.188 66.7454 80.38 66.833 80.5923C66.9207 80.8045 66.9639 81.0324 66.9601 81.262ZM63.7433 98.4651V85.5679C63.7394 85.3718 63.7757 85.177 63.85 84.9955C63.9243 84.8139 64.035 84.6496 64.1753 84.5125C64.312 84.3755 64.4744 84.2668 64.6532 84.1926C64.832 84.1185 65.0236 84.0803 65.2172 84.0803C65.4107 84.0803 65.6024 84.1185 65.7812 84.1926C65.9599 84.2668 66.1223 84.3755 66.2591 84.5125C66.3997 84.6501 66.5115 84.8142 66.5881 84.9954C66.6647 85.1766 66.7046 85.3712 66.7053 85.5679V98.4651C66.7048 98.6618 66.6651 98.8565 66.5885 99.0378C66.5119 99.219 66.3999 99.3831 66.2591 99.5205C66.052 99.7271 65.7882 99.8673 65.5012 99.9235C65.2142 99.9798 64.917 99.9494 64.6473 99.8362C64.3777 99.7231 64.1477 99.5323 63.9867 99.2882C63.8258 99.044 63.741 98.7575 63.7433 98.4651Z" fill="black"/>
<path d="M78.2133 98.4529V78.7819C78.2121 78.5807 78.2503 78.3812 78.3258 78.1947C78.3991 78.0142 78.5077 77.8502 78.6453 77.7122C78.7813 77.5759 78.9425 77.4674 79.12 77.3927C79.4218 77.2703 79.7547 77.2469 80.0706 77.326C80.3866 77.405 80.6693 77.5824 80.8778 77.8325L93.5189 94.0875V78.7819C93.5303 78.3911 93.6936 78.0201 93.9741 77.7478C94.2546 77.4754 94.6302 77.323 95.0212 77.323C95.4122 77.323 95.7878 77.4754 96.0683 77.7478C96.3488 78.0201 96.5121 78.3911 96.5236 78.7819V98.4529C96.5258 98.6569 96.4871 98.8592 96.4098 99.0479C96.3354 99.2267 96.2264 99.3889 96.089 99.5252C95.9515 99.6615 95.7884 99.7692 95.6091 99.8421C95.4222 99.9177 95.2222 99.956 95.0206 99.9547C94.8029 99.9554 94.5875 99.909 94.3895 99.8185C94.1914 99.7281 94.0153 99.5958 93.8733 99.4308L81.218 83.1758V98.4529C81.2239 98.6539 81.1894 98.8541 81.1166 99.0415C81.0437 99.2289 80.934 99.3999 80.7939 99.5441C80.6538 99.6884 80.4862 99.8031 80.301 99.8814C80.1158 99.9597 79.9167 100 79.7157 100C79.5146 100 79.3155 99.9597 79.1303 99.8814C78.9451 99.8031 78.7775 99.6884 78.6374 99.5441C78.4973 99.3999 78.3876 99.2289 78.3147 99.0415C78.2419 98.8541 78.2074 98.6539 78.2133 98.4529Z" fill="black"/>
<path d="M110.737 95.4908C110.933 95.4835 111.128 95.5167 111.31 95.5883C111.492 95.6598 111.658 95.7681 111.796 95.9065C111.935 96.0449 112.043 96.2104 112.114 96.3926C112.186 96.5748 112.219 96.7697 112.212 96.9653C112.215 97.1618 112.18 97.357 112.107 97.5394C112.033 97.7218 111.925 97.8877 111.786 98.0273C110.32 99.313 108.591 99.9554 106.6 99.9545C105.549 99.9679 104.506 99.7726 103.531 99.3798C102.557 98.987 101.67 98.4045 100.922 97.6663C100.174 96.928 99.5806 96.0486 99.1754 95.0791C98.7702 94.1096 98.5615 93.0693 98.5615 92.0185C98.5615 90.9677 98.7702 89.9274 99.1754 88.9579C99.5806 87.9883 100.174 87.1089 100.922 86.3707C101.67 85.6324 102.557 85.05 103.531 84.6572C104.506 84.2644 105.549 84.069 106.6 84.0824C108.773 84.0824 110.643 84.8585 112.212 86.4107C112.96 87.1367 113.553 88.0072 113.954 88.9691C114.348 89.9387 114.546 90.9766 114.536 92.023C114.542 92.2193 114.506 92.4146 114.432 92.5964C114.357 92.7781 114.246 92.9423 114.104 93.0785C113.965 93.2151 113.8 93.3225 113.618 93.3943C113.437 93.466 113.243 93.5007 113.047 93.4963H101.824C101.98 94.0064 102.219 94.4871 102.532 94.9191C102.837 95.3437 103.208 95.717 103.631 96.025C104.054 96.3338 104.522 96.5751 105.019 96.7403C105.528 96.9125 106.062 96.9999 106.6 96.999C107.184 97.0058 107.764 96.9095 108.315 96.7144C108.843 96.52 109.333 96.2321 109.759 95.8646C110.032 95.6305 110.378 95.4984 110.737 95.4908ZM111.375 90.5446C111.218 90.0335 110.976 89.5524 110.66 89.1218C110.037 88.2711 109.166 87.6347 108.166 87.3006C107.661 87.1298 107.132 87.0424 106.6 87.0419C106.065 87.0427 105.534 87.1301 105.027 87.3006C104.525 87.4664 104.052 87.708 103.623 88.0172C103.198 88.3238 102.824 88.6967 102.517 89.1218C102.205 89.5522 101.971 90.0337 101.824 90.5446H111.375Z" fill="black"/>
<path d="M116.775 98.4674V78.7679C116.773 78.5721 116.811 78.3779 116.885 78.1966C116.959 78.0154 117.069 77.8507 117.207 77.7123C117.345 77.5738 117.51 77.4643 117.691 77.3901C117.873 77.316 118.067 77.2787 118.263 77.2804C118.457 77.2775 118.649 77.3144 118.829 77.3887C119.008 77.463 119.17 77.5731 119.305 77.7125C119.445 77.8497 119.556 78.0141 119.63 78.1956C119.704 78.3771 119.741 78.5718 119.737 78.7679V89.8219L128.212 84.3091C128.449 84.1584 128.724 84.0797 129.005 84.0828C129.205 84.0809 129.403 84.1196 129.587 84.1966C129.763 84.2695 129.922 84.3778 130.054 84.5148C130.187 84.6534 130.295 84.814 130.373 84.9895C130.453 85.1681 130.494 85.3616 130.494 85.5573C130.494 86.0868 130.305 86.4787 129.927 86.7331L123.989 90.5876L130.082 97.443C130.347 97.7223 130.495 98.0928 130.494 98.4777C130.494 98.673 130.453 98.8661 130.373 99.0443C130.296 99.2201 130.188 99.3808 130.054 99.519C129.921 99.6559 129.763 99.7646 129.587 99.8385C129.402 99.9144 129.205 99.9527 129.005 99.951C128.822 99.9556 128.64 99.9236 128.47 99.857C128.299 99.7903 128.144 99.6904 128.013 99.5629L121.465 92.207L119.737 93.3414V98.457C119.74 98.652 119.702 98.8453 119.628 99.0256C119.554 99.2058 119.444 99.3692 119.305 99.506C119.171 99.647 119.009 99.7587 118.83 99.8342C118.65 99.9096 118.457 99.9472 118.263 99.9445C118.066 99.9484 117.871 99.9114 117.689 99.8359C117.507 99.7604 117.343 99.6481 117.207 99.506C117.069 99.3706 116.96 99.2089 116.886 99.0305C116.812 98.8521 116.774 98.6606 116.775 98.4674Z" fill="black"/>
<path d="M147.641 92.0193C147.641 94.2303 146.865 96.1011 145.313 97.6317C143.745 99.1838 141.875 99.9599 139.702 99.9599C138.651 99.9733 137.608 99.778 136.634 99.3852C135.659 98.9923 134.772 98.4099 134.024 97.6717C133.277 96.9334 132.683 96.054 132.278 95.0845C131.872 94.115 131.664 93.0747 131.664 92.0239C131.664 90.9731 131.872 89.9327 132.278 88.9632C132.683 87.9937 133.277 87.1143 134.024 86.3761C134.772 85.6378 135.659 85.0554 136.634 84.6626C137.608 84.2698 138.651 84.0744 139.702 84.0878C141.875 84.0878 143.745 84.8639 145.313 86.416C146.058 87.1462 146.648 88.0184 147.05 88.981C147.439 89.9469 147.639 90.9781 147.641 92.0193ZM139.706 87.0447C139.033 87.0389 138.367 87.1741 137.75 87.4418C137.162 87.6945 136.627 88.0576 136.176 88.5115C135.728 88.9671 135.369 89.5034 135.12 90.0921C134.863 90.7021 134.731 91.3574 134.731 92.0193C134.731 92.6813 134.863 93.3366 135.12 93.9466C135.37 94.5351 135.728 95.0714 136.176 95.5272C136.628 95.9806 137.162 96.3437 137.75 96.5969C138.366 96.8589 139.029 96.994 139.699 96.994C140.368 96.994 141.031 96.8589 141.647 96.5969C142.238 96.3417 142.774 95.976 143.227 95.5194C143.677 95.0637 144.037 94.5276 144.29 93.9388C144.547 93.3313 144.679 92.6783 144.679 92.0187C144.679 91.359 144.547 90.7061 144.29 90.0985C144.038 89.51 143.678 88.9739 143.229 88.5179C142.776 88.0618 142.24 87.6966 141.65 87.4418C141.037 87.175 140.374 87.0398 139.706 87.0447Z" fill="black"/>
</svg>
