<svg width="1051" height="1013" viewBox="0 0 1051 1013" fill="none" xmlns="http://www.w3.org/2000/svg">
<g opacity="0.1">
<path fill-rule="evenodd" clip-rule="evenodd" d="M152.72 889.126C152.72 889.126 519.952 855.999 681.829 859.258C843.705 862.517 807.473 923.978 807.473 923.978C807.473 923.978 404.047 1046.09 152.72 889.126Z" fill="white"/>
<path fill-rule="evenodd" clip-rule="evenodd" d="M250.3 915.258C256.186 914.261 262.148 913.341 268.187 912.823C277.828 911.795 287.515 911.27 297.211 911.251H363.062C395.389 911.295 427.466 916.918 457.88 927.872C459.107 926.626 460.372 925.399 461.58 924.038C464.154 921.224 466.949 918.622 469.938 916.255L478.987 909.181C482.035 906.88 485.466 905.155 488.725 903.142C495.186 898.944 502.336 896.375 509.257 893.269C523.167 888.195 537.717 885.091 552.487 884.048C581.434 881.556 608.944 887.269 633.751 895.55C666.704 906.805 697.189 924.286 723.546 947.043C743.944 942.672 764.935 937.304 785.601 930.997C807.445 924.396 828.91 916.601 849.9 907.647C857.913 904.132 864.942 900.893 870.987 897.928C877.288 894.835 884.221 891.243 891.787 887.154C940.826 859.72 979.646 823.891 997.417 778.035C1012.75 738.658 1012.75 690.789 990.669 632.932C989.926 630.99 989.474 628.949 989.327 626.874C909.635 693.78 577.562 832.441 506.535 570.513C503.407 553.738 494.508 538.586 481.382 527.683C468.256 516.78 451.728 510.813 434.664 510.815C399.448 510.815 371.497 536.408 362.774 570.513C313.123 764.366 107.345 759.286 60.3197 632.913L54.0509 651.604L52.479 656.263L51.3287 660.998L49.0282 670.468C48.3189 673.631 47.3221 676.756 46.8429 679.939L45.4241 689.524L43.9673 699.109L43.4496 708.694L42.932 718.28C42.7978 721.443 43.1812 724.587 43.277 727.731L43.7181 737.163C43.8906 740.307 44.6191 743.355 45.0216 746.441L46.4211 755.72C47.0537 758.768 48.0123 761.759 48.7599 764.768L51.1563 773.817L54.4919 782.54C55.6805 785.415 56.524 788.425 57.9618 791.205L62.1794 799.582C65.0129 805.2 68.2149 810.625 71.7647 815.82L74.2568 819.826L77.1707 823.661L82.9219 831.214C86.756 836.275 91.4528 840.799 95.632 845.534C99.8112 850.269 105.026 854.353 109.684 858.82C114.343 863.286 119.806 866.967 124.829 871.07L140.971 882.304L152.741 889.435" fill="white"/>
<path fill-rule="evenodd" clip-rule="evenodd" d="M60.3205 632.969C107.346 759.342 313.123 764.422 362.775 570.569C371.498 536.464 399.449 510.872 434.665 510.872C451.729 510.869 468.256 516.836 481.383 527.739C494.509 538.642 503.407 553.794 506.536 570.569C577.467 832.497 909.636 693.836 989.328 626.93C982.465 538.995 968.797 461.603 944.795 396.174C921.445 332.547 888.261 280.211 841.906 240.355C838.657 237.887 836.179 234.543 834.763 230.717C833.347 226.89 833.052 222.739 833.912 218.75C850.456 142.355 885.136 88.2555 919.375 59.9022C927.193 53.3174 935.78 47.7042 944.948 43.1854C922.48 40.0415 892.9 48.3232 862.706 62.1835C806.882 87.7955 751.67 131.677 729.528 161.641C726.4 165.861 721.828 168.782 716.684 169.846C713.27 170.544 709.738 170.406 706.389 169.443L705.872 169.29C678.798 161.573 651.176 155.927 623.246 152.4C591.287 148.332 559.112 146.187 526.895 145.978H525.323C522.515 145.958 519.739 145.385 517.153 144.29C514.567 143.196 512.222 141.603 510.253 139.601C508.283 137.6 506.728 135.23 505.676 132.627C504.624 130.023 504.095 127.238 504.12 124.43C504.12 123.951 504.12 123.453 504.12 122.974C454.387 124.362 404.956 131.209 356.717 143.39C357.006 147.925 355.843 152.435 353.395 156.264C350.947 160.093 347.343 163.042 343.105 164.683C338.867 166.324 334.217 166.572 329.829 165.391C325.44 164.209 321.543 161.66 318.702 158.113C314.775 153.234 310.603 148.557 306.203 144.1C278.52 115.746 232.128 81.8909 185.677 61.0716C148.045 44.1823 111.64 36.1498 89.1148 48.5532C62.5827 63.0654 53.4766 107.292 54.2817 158.918C55.2978 221.51 71.3244 292.442 89.8049 340.234L90.6292 338.547L93.0256 333.716L95.6903 329.307L100.981 320.469L111.602 302.794C113.469 299.798 116.412 297.631 119.827 296.736C123.241 295.841 126.869 296.286 129.965 297.98C133.062 299.675 135.393 302.489 136.481 305.848C137.568 309.206 137.33 312.853 135.814 316.041L126.67 334.617L122.127 343.876L119.845 348.497L118.062 353.078L110.893 371.214L107.25 380.262C106.1 383.31 105.18 386.589 104.144 389.733L98.0674 408.75C95.9474 415.077 94.1495 421.507 92.6805 428.016L87.8879 447.417C85.9708 453.82 84.8781 460.434 83.5745 467.009L79.7403 486.717C78.3025 493.235 77.3632 499.906 76.4239 506.558L73.4907 526.515C72.4555 533.129 71.5736 539.781 70.826 546.51L68.3914 566.581C67.7204 573.291 66.5893 580.001 66.0525 586.672C64.8064 600.092 63.3878 613.511 61.6625 626.93V627.237C61.4166 629.161 60.9799 631.055 60.3589 632.892L60.3205 632.969Z" fill="#DCC58F"/>
<path fill-rule="evenodd" clip-rule="evenodd" d="M427.666 674.59C441.085 675.97 526.95 616.388 427.666 617.078C328.381 616.311 414.246 675.894 427.666 674.59Z" fill="black"/>
<path d="M158.816 570.817C153.777 571.618 148.627 570.384 144.498 567.388C140.369 564.391 137.599 559.877 136.798 554.838C135.997 549.8 137.231 544.649 140.228 540.52C143.224 536.391 147.738 533.622 152.777 532.821C184.555 527.697 217.12 533.98 244.711 550.558C272.302 567.136 293.139 592.939 303.535 623.402C304.841 627.271 304.885 631.455 303.659 635.351C302.433 639.246 300 642.651 296.713 645.075C293.426 647.498 289.454 648.814 285.37 648.833C281.286 648.852 277.302 647.572 273.993 645.18C255.905 632.073 234.6 624.121 212.348 622.169C190.096 620.218 167.732 624.341 147.639 634.099C145.361 635.198 142.888 635.837 140.363 635.981C137.837 636.124 135.308 635.769 132.92 634.935C130.532 634.101 128.332 632.804 126.445 631.12C124.558 629.436 123.021 627.396 121.922 625.118C120.823 622.839 120.184 620.367 120.04 617.841C119.897 615.316 120.252 612.787 121.086 610.399C121.92 608.011 123.216 605.81 124.901 603.923C126.585 602.036 128.625 600.499 130.903 599.4C157.242 586.626 186.556 581.246 215.714 583.834C219.702 584.179 223.67 584.677 227.619 585.329L224.897 583.642C205.082 571.68 181.666 567.135 158.816 570.817V570.817Z" fill="black"/>
<path d="M708.076 532.822C713.115 533.623 717.629 536.393 720.625 540.522C723.622 544.651 724.856 549.801 724.055 554.84C723.254 559.878 720.484 564.393 716.355 567.389C712.226 570.386 707.076 571.619 702.037 570.819C679.204 567.123 655.801 571.633 635.975 583.548L633.253 585.235C637.202 584.583 641.171 584.085 645.158 583.74C674.327 581.186 703.642 586.606 729.969 599.421C732.247 600.52 734.287 602.057 735.971 603.944C737.656 605.831 738.952 608.032 739.786 610.42C740.62 612.808 740.975 615.337 740.832 617.862C740.689 620.388 740.049 622.86 738.95 625.138C737.851 627.417 736.315 629.456 734.428 631.141C732.54 632.825 730.34 634.121 727.952 634.955C725.564 635.789 723.035 636.145 720.509 636.002C717.984 635.858 715.511 635.219 713.233 634.12C693.143 624.361 670.782 620.238 648.533 622.19C626.285 624.141 604.983 632.094 586.899 645.201C583.586 647.599 579.597 648.882 575.508 648.865C571.418 648.848 567.44 647.531 564.148 645.105C560.856 642.679 558.42 639.27 557.192 635.369C555.965 631.468 556.009 627.278 557.318 623.404C567.718 592.943 588.555 567.142 616.145 550.565C643.735 533.988 676.299 527.703 708.076 532.822V532.822Z" fill="black"/>
<path fill-rule="evenodd" clip-rule="evenodd" d="M513.245 712.985H341.15C377.114 802.857 405.793 846.189 427.188 842.981C451.394 843.326 480.08 799.994 513.245 712.985V712.985Z" fill="black"/>
<path fill-rule="evenodd" clip-rule="evenodd" d="M378.397 786.719C397.567 821.226 413.83 837.483 427.186 835.489C441.973 835.693 458.434 819.596 476.569 787.198L476.071 786.834C462.471 775.147 445.139 768.712 427.207 768.691C409.276 768.67 391.928 775.064 378.301 786.719H378.397Z" fill="#FF9E9E"/>
<path d="M489.855 729.128H365.476C379.394 761.922 392.014 786.882 403.338 804.008C413.894 819.958 421.166 827.626 425.154 827.013C426.201 826.858 427.26 826.806 428.317 826.86C434.528 826.4 443.002 818.054 453.737 801.823C464.933 784.914 476.972 760.67 489.855 729.09V729.128ZM341.436 696.94H513.473C515.438 696.956 517.385 697.32 519.224 698.014C521.203 698.767 523.013 699.902 524.553 701.355C526.092 702.808 527.33 704.55 528.195 706.482C529.061 708.414 529.536 710.498 529.596 712.614C529.655 714.73 529.297 716.837 528.541 718.814C511.581 763.367 495.606 796.998 480.614 819.709C463.617 845.398 446.433 858.53 429.065 859.105C411.888 861.213 394.385 848.797 376.556 821.856C361.744 799.465 345.219 765.597 326.981 720.252C325.761 717.791 325.19 715.061 325.32 712.317C325.45 709.574 326.278 706.91 327.725 704.576C329.172 702.242 331.191 700.316 333.59 698.98C335.989 697.644 338.69 696.942 341.436 696.94V696.94Z" fill="black"/>
<path fill-rule="evenodd" clip-rule="evenodd" d="M878.655 215.759C913.737 247.985 941.611 286.594 963.6 331.166C978.485 287.026 988.463 241.38 993.353 195.055C997.819 151.307 996.938 109.324 986.394 80.6445C985.131 79.243 983.462 78.2711 981.62 77.8647C977.188 77.2339 972.668 77.8238 968.546 79.5709C960.569 82.7419 953.186 87.2402 946.711 92.8753C920.504 114.596 893.704 156.138 878.655 215.682V215.759Z" fill="#FFB2B2"/>
<path fill-rule="evenodd" clip-rule="evenodd" d="M724.773 158.387L724.927 158.196C736.832 142.112 757.843 122.232 783.244 103.253C807.277 85.2091 833.109 69.6945 860.329 56.9558C875.434 49.8293 891.213 44.2293 907.431 40.239C921.291 37.0375 934.27 35.8873 945.772 37.4976L964.521 40.1048L947.479 48.3482C943.255 50.4002 939.169 52.7248 935.248 55.3071C931.017 58.0695 926.952 61.0781 923.074 64.3173C905.399 78.9636 887.57 100.741 872.272 129.152C857.195 157.745 846.187 188.305 839.567 219.944C838.929 222.857 839.131 225.892 840.149 228.695C841.167 231.498 842.96 233.954 845.318 235.779L845.587 235.99C869.192 256.378 889.782 280.015 906.741 306.193C924.501 333.782 939.062 363.303 950.143 394.186C955.422 408.564 960.24 423.6 964.598 439.294C968.956 454.989 972.841 471.124 976.254 487.7L977.461 493.451L971.576 494.448C924.286 502.388 875.791 499.106 830.002 484.866C784.213 470.627 742.41 445.828 707.963 412.468C673.516 379.109 647.39 338.123 631.689 292.814C615.988 247.505 611.152 199.141 617.572 151.62L618.338 145.869L624.089 146.598C639.119 148.566 653.58 150.975 667.473 153.825C681.365 156.675 694.727 159.959 707.558 163.679L708.095 163.832C708.421 163.928 708.824 164.024 709.322 164.119C709.753 164.207 710.188 164.271 710.626 164.311C710.99 164.311 711.488 164.311 711.91 164.407C712.408 164.436 712.907 164.436 713.405 164.407C713.814 164.407 714.217 164.369 714.613 164.292C715.092 164.292 715.495 164.139 715.974 164.024C719.52 163.205 722.668 161.17 724.869 158.272L724.773 158.387Z" fill="#93774F"/>
<path fill-rule="evenodd" clip-rule="evenodd" d="M724.771 158.387L724.924 158.196C736.829 142.112 757.84 122.232 783.241 103.253C807.274 85.2091 833.106 69.6945 860.326 56.9558C875.431 49.8293 891.21 44.2293 907.428 40.239C921.289 37.0375 934.267 35.8873 945.769 37.4976L964.518 40.1048L947.476 48.3481C943.252 50.4002 939.167 52.7248 935.245 55.3071C931.014 58.0695 926.949 61.0781 923.071 64.3173C905.396 78.9636 887.567 100.741 872.269 129.152C857.192 157.745 846.184 188.305 839.564 219.944C838.926 222.857 839.128 225.892 840.146 228.695C841.164 231.498 842.957 233.954 845.315 235.779L845.584 235.99C869.189 256.378 889.779 280.015 906.738 306.193C924.498 333.782 939.059 363.303 950.14 394.186C955.419 408.564 960.237 423.6 964.595 439.294C968.953 454.989 972.838 471.124 976.251 487.7L977.458 493.451L971.573 494.448C945.693 498.804 919.36 499.81 893.223 497.439C860.633 299.061 772.985 201.176 617.53 151.563C617.818 149.646 618.144 147.729 618.489 145.927L623.952 146.636C638.982 148.604 653.443 151.013 667.335 153.863C681.228 156.713 694.59 159.998 707.421 163.717L707.958 163.87C708.284 163.966 708.686 164.062 709.185 164.158C709.616 164.245 710.051 164.309 710.489 164.35C710.853 164.35 711.351 164.35 711.773 164.445C712.271 164.474 712.77 164.474 713.268 164.445C713.677 164.445 714.08 164.407 714.476 164.33C714.955 164.33 715.358 164.177 715.837 164.062C719.383 163.244 722.531 161.209 724.732 158.311L724.771 158.387Z" fill="#856A44"/>
<path fill-rule="evenodd" clip-rule="evenodd" d="M526.299 146.035L515.391 146.744C508.432 147.147 498.463 147.837 486.501 148.201C480.558 148.47 473.925 148.546 467.522 149.371L446.952 151.173C439.821 151.844 432.421 152.016 424.906 153.09L402.093 156.061C394.425 157.211 386.641 157.633 379.299 159.359L357.502 163.787C353.955 164.477 350.447 165.129 347.035 165.704L344.485 166.202L343.852 166.317L345.578 165.704H345.405L345.099 165.819L343.852 166.26L338.926 167.966L320.656 174.35C315.709 175.907 310.884 177.83 306.221 180.101C302.099 182.018 298.552 183.552 295.562 184.894L286.091 188.939L284.615 189.591C281.402 190.966 277.789 191.083 274.493 189.919C271.197 188.756 268.459 186.396 266.821 183.308C265.183 180.221 264.765 176.63 265.65 173.249C266.535 169.867 268.658 166.942 271.598 165.052L281.471 158.726L292.974 151.575C297.743 148.437 302.727 145.638 307.888 143.198L325.391 134.935L330.107 132.711L331.296 132.136L331.602 132.002H331.756L333.673 131.35L334.344 131.139L336.989 130.334L347.917 127.037L370.921 120.442C378.743 118.027 386.89 116.934 394.942 115.113L419.097 110.263C427.11 108.863 435.181 108.154 442.907 107.195L465.26 104.799C472.487 103.975 478.852 103.936 484.852 103.706C496.815 103.227 506.783 103.189 513.762 103.093H524.785C530.343 103.092 535.685 105.248 539.687 109.105C543.689 112.963 546.039 118.223 546.243 123.777C546.446 129.332 544.488 134.75 540.779 138.89C537.07 143.03 531.9 145.571 526.357 145.977L526.299 146.035Z" fill="black"/>
<path fill-rule="evenodd" clip-rule="evenodd" d="M135.814 316.04L126.669 334.616L122.126 343.875L119.844 348.495L118.062 353.077L110.892 371.213L107.249 380.261C106.099 383.309 105.179 386.587 104.144 389.731L98.0666 408.749C95.9465 415.076 94.1486 421.506 92.6796 428.015L87.887 447.416C85.9699 453.819 84.8772 460.433 83.5736 467.008L79.7395 486.716C78.3209 493.234 77.3816 499.905 76.4422 506.557L73.509 526.495C72.4738 533.128 71.5919 539.78 70.8443 546.509L68.3905 566.58C67.7195 573.29 66.5884 580 66.0516 586.671C64.8056 600.091 63.387 613.51 61.6616 626.929V627.236C61.4157 629.16 60.9791 631.054 60.358 632.891L54.0892 651.583L52.5172 656.241L51.367 660.976L49.0665 670.447C48.3572 673.61 47.3603 676.735 46.881 679.917L45.4624 689.502L44.0054 699.088L43.4879 708.673L42.9703 718.258C42.8361 721.421 43.2195 724.565 43.3153 727.709L43.7562 737.141C43.9288 740.285 44.6572 743.333 45.0598 746.42L46.4593 755.698C47.092 758.747 48.0504 761.737 48.7981 764.747L51.1944 773.795L54.5301 782.518C55.7187 785.394 56.5622 788.403 58 791.202L62.2175 799.561C65.051 805.179 68.2531 810.603 71.8028 815.798L74.295 819.786L77.2089 823.62L82.9601 831.173C86.7943 836.234 91.4911 840.758 95.6703 845.493C99.8494 850.229 105.064 854.312 109.703 858.779C114.668 862.958 119.844 866.926 124.886 871.029L140.99 882.263L157.936 892.519L159.029 893.19C163.897 896.136 167.396 900.896 168.755 906.422C170.114 911.948 169.222 917.787 166.276 922.655C164.817 925.066 162.897 927.165 160.627 928.834C158.357 930.503 155.78 931.708 153.044 932.381C147.518 933.74 141.679 932.848 136.81 929.902V929.902L117.64 918.399L99.1593 905.517C93.2739 900.781 87.2927 896.161 81.5031 891.273C75.982 886.039 70.2309 881.055 64.9206 875.572C59.6104 870.089 54.3193 864.511 49.5842 858.319L42.5294 849.136L39.0211 844.535L35.8771 839.608C31.521 833.16 27.5768 826.444 24.0681 819.498L18.8728 808.724C17.1091 805.235 15.9589 801.459 14.4828 797.835L10.3227 786.851L7.25542 775.502C6.29689 771.667 5.18499 767.948 4.37983 764.133L2.57779 752.631C2.06018 748.797 1.23581 744.963 0.986593 741.129L0.411499 729.492C0.277304 725.658 -0.106131 721.709 0.028063 717.856L0.603158 706.353C0.833205 702.519 0.986659 698.685 1.29339 694.851L2.98041 683.521L4.68651 672.191C5.2808 668.357 6.39271 664.81 7.21704 661.111L9.92016 650.107L11.2812 644.585L13.0641 639.256L20.234 617.957L18.892 623.92C19.7547 610.002 20.9241 596.103 22.2469 582.204C22.7645 575.265 23.838 568.325 24.8348 561.404L27.8638 540.623L29.3974 530.252L31.4679 519.9L35.6279 499.253C36.989 492.371 38.331 485.489 40.2097 478.664L45.3858 458.19C47.1303 451.365 48.7407 444.521 51.022 437.811L57.4441 417.605C59.5528 410.877 61.7383 404.186 64.4988 397.611L72.3205 377.846C73.6624 374.548 74.8318 371.27 76.308 367.992L81.0239 358.196L90.6092 338.776L93.0055 333.945L95.6703 329.536L100.961 320.698L111.582 303.023C113.496 300.18 116.399 298.15 119.726 297.327C123.053 296.503 126.568 296.946 129.587 298.568C132.607 300.19 134.916 302.876 136.066 306.104C137.217 309.333 137.127 312.874 135.814 316.04Z" fill="black"/>
<path d="M525.321 145.942C519.652 145.897 514.233 143.601 510.257 139.56C506.281 135.519 504.072 130.064 504.118 124.395C504.164 118.726 506.46 113.307 510.501 109.331C514.542 105.354 519.997 103.146 525.666 103.192C560.144 103.354 594.58 105.608 628.785 109.94C659.045 113.783 688.967 119.929 718.292 128.325C723.743 129.903 728.343 133.583 731.08 138.553C733.818 143.523 734.469 149.378 732.891 154.828C731.312 160.278 727.633 164.879 722.662 167.616C717.692 170.354 711.838 171.005 706.387 169.426C679.151 161.623 651.354 155.926 623.244 152.384C590.764 148.258 558.062 146.107 525.321 145.942V145.942ZM1019.81 53.751C1023.27 58.1509 1024.87 63.73 1024.28 69.2969C1023.68 74.8637 1020.94 79.9772 1016.62 83.5456C1012.31 87.1139 1006.77 88.8544 1001.19 88.3952C995.609 87.9361 990.43 85.3138 986.757 81.0882C985.453 79.4781 983.642 78.3566 981.62 77.9059C977.187 77.2751 972.667 77.865 968.545 79.6121C960.568 82.7831 953.186 87.2814 946.71 92.9165C920.504 114.618 893.703 156.18 878.654 215.723C926.312 259.509 960.705 315.085 985.032 381.396C1010.22 450.007 1024.6 530.121 1031.85 620.607C1056.77 687.972 1056.04 745.216 1037.33 793.506C1015.49 849.83 969.676 892.714 912.318 924.768L912.069 924.902C905.423 928.506 897.991 932.34 889.773 936.404C881.338 940.532 873.753 944.079 867.018 947.044H866.845C844.375 956.598 821.4 964.917 798.023 971.966C773.101 979.634 747.566 985.922 722.989 990.849C720.236 991.399 717.402 991.401 714.648 990.856C711.894 990.311 709.275 989.228 706.939 987.671C702.222 984.525 698.948 979.634 697.837 974.074C696.726 968.515 697.869 962.741 701.015 958.024C704.161 953.308 709.052 950.034 714.612 948.923C737.789 944.283 761.905 938.264 785.543 931.036C807.386 924.435 828.851 916.64 849.841 907.687C857.854 904.172 864.883 900.932 870.929 897.967C877.229 894.874 884.163 891.283 891.729 887.193C940.767 859.76 979.588 823.93 997.359 778.074C1012.7 738.698 1012.7 690.829 990.611 632.972C989.876 631.027 989.424 628.987 989.269 626.914C982.406 538.959 968.737 461.586 944.716 396.157C921.386 332.53 888.201 280.194 841.847 240.338C838.598 237.87 836.119 234.527 834.704 230.7C833.288 226.873 832.992 222.722 833.853 218.733C850.397 142.338 885.076 88.2389 919.315 59.8855C929.563 51.1244 941.233 44.1804 953.822 39.3538C966.705 34.6954 979.204 33.6026 990.534 35.9798C1001.99 38.407 1012.27 44.6774 1019.67 53.751H1019.81Z" fill="black"/>
<path d="M982.445 395.752C981.09 398.223 979.263 400.403 977.066 402.167C974.869 403.932 972.346 405.246 969.641 406.036C966.936 406.825 964.102 407.074 961.301 406.768C958.5 406.463 955.786 405.608 953.315 404.254C950.844 402.899 948.664 401.071 946.9 398.875C945.135 396.678 943.821 394.155 943.031 391.45C942.242 388.745 941.992 385.911 942.298 383.11C942.604 380.308 943.458 377.595 944.813 375.124L945.695 373.552C964.597 338.355 986.106 265.411 993.276 195.112C1000.04 128.916 994.561 66.6689 961.856 48.6294L960.763 48.0159C937.643 36.1301 900.625 44.7569 862.628 62.183C806.804 87.7949 751.592 131.676 729.45 161.64C726.069 166.198 721.016 169.227 715.402 170.059C709.788 170.891 704.074 169.459 699.515 166.078C694.957 162.697 691.929 157.644 691.097 152.03C690.264 146.416 691.696 140.701 695.077 136.143C720.574 101.636 782.764 51.7925 844.857 23.2666C893.877 0.779515 944.161 -8.92081 980.796 10.2115L982.483 11.0741C1033.69 39.37 1044.19 117.931 1035.87 199.31C1028.21 275.034 1004.36 354.746 983.346 393.892L982.368 395.809L982.445 395.752Z" fill="black"/>
<path d="M103.223 370.14C105.935 375.122 106.557 380.978 104.952 386.42C103.347 391.861 99.6456 396.442 94.6629 399.154C89.6802 401.867 83.8242 402.489 78.3828 400.884C72.9415 399.278 68.3608 395.577 65.6483 390.595C39.7871 342.975 12.8907 243.652 11.5871 159.57C10.5327 93.2201 25.5433 34.5772 68.7155 10.959C104.775 -8.78674 154.466 0.127592 203.178 21.9821C263.508 49.0126 324.451 96.7475 352.134 131.427C355.67 135.853 357.303 141.502 356.674 147.132C356.045 152.763 353.205 157.912 348.779 161.448C344.353 164.984 338.704 166.618 333.074 165.988C327.444 165.359 322.294 162.519 318.758 158.093C294.488 127.727 240.158 85.456 185.733 61.0518C148.101 44.1625 111.696 36.13 89.1705 48.5334C62.6384 63.0455 53.5324 107.272 54.3376 158.899C55.5453 236.463 79.8728 327.121 103.203 370.14H103.223Z" fill="black"/>
<path fill-rule="evenodd" clip-rule="evenodd" d="M597.344 974.914C617.741 970.562 764.933 937.397 785.599 931.09C807.443 924.489 828.908 916.694 849.897 907.74C857.911 904.225 864.94 900.986 870.985 898.021C877.286 894.928 884.219 891.336 891.785 887.247C940.823 859.814 979.644 823.984 997.415 778.127C1012.75 738.751 1012.75 690.882 990.667 633.025C989.924 631.083 989.471 629.042 989.325 626.967C974.564 639.371 951.118 654.228 922.228 668.548C940.938 717.842 918.023 766.376 853.482 814.149C779.407 859.986 710.623 936.841 504.06 970.025" fill="#E3DFDF"/>
<path fill-rule="evenodd" clip-rule="evenodd" d="M922.286 668.509C951.042 654.188 974.564 639.331 989.383 626.928C986.171 582.471 980.326 538.243 971.881 494.478H971.67C945.796 498.834 919.469 499.839 893.339 497.469C900.743 544.594 905.225 592.132 906.758 639.81C913.117 648.677 918.34 658.305 922.305 668.47L922.286 668.509Z" fill="#CCB785"/>
<path fill-rule="evenodd" clip-rule="evenodd" d="M100.904 320.47C65.1184 143.449 72.6973 50.9121 123.64 42.8605C110.355 41.7869 98.5648 43.3972 89.1329 48.6117C62.6007 63.1238 53.4946 107.35 54.2998 158.977C55.2967 221.511 71.3233 292.443 89.8038 340.235L90.6281 338.548L93.0244 333.717L95.6892 329.308L100.98 320.47H100.904Z" fill="#F7E4B7"/>
<path fill-rule="evenodd" clip-rule="evenodd" d="M87.8844 447.418C85.9674 453.821 84.8747 460.434 83.5711 467.01L79.7369 486.717C78.3183 493.235 77.379 499.907 76.4396 506.559L73.5065 526.496C72.4713 533.129 71.5894 539.782 70.8417 546.51L68.388 566.582C67.717 573.292 66.5859 580.002 66.0491 586.673C64.803 600.092 63.3844 613.512 61.6591 626.931V627.238C61.4132 629.162 60.9765 631.056 60.3555 632.893C64.925 645.236 71.2457 656.857 79.1235 667.4C80.5804 552.019 99.4763 434.88 135.811 315.984L126.667 334.618L122.123 343.877L119.842 348.497L118.059 353.079L110.889 371.214L107.247 380.263C106.096 383.311 105.176 386.589 104.141 389.733L98.064 408.75C95.944 415.078 94.146 421.508 92.6771 428.017L87.8844 447.418Z" fill="#F7E4B7"/>
<path fill-rule="evenodd" clip-rule="evenodd" d="M930.607 275.188C976.31 148.662 983.684 86.3578 952.73 88.2749C950.813 89.6935 948.743 91.2463 946.711 92.9333C920.504 114.654 893.704 156.196 878.655 215.74C898.07 233.613 915.489 253.54 930.607 275.169V275.188Z" fill="#F59F9F"/>
<path fill-rule="evenodd" clip-rule="evenodd" d="M725.692 165.628C802.298 109.1 866.839 73.8584 919.315 59.9022C927.133 53.3174 935.721 47.7042 944.889 43.1854C922.421 40.0415 892.841 48.3232 862.647 62.1835C806.822 87.7955 751.611 131.677 729.469 161.641C728.361 163.124 727.074 164.463 725.635 165.628H725.692Z" fill="#93774F"/>
<path fill-rule="evenodd" clip-rule="evenodd" d="M186.808 684.403C227.334 688.237 258.755 706.737 256.972 725.946C255.189 745.155 220.912 757.654 180.29 753.896C139.667 750.139 108.438 731.543 110.202 712.277C111.966 693.011 146.281 680.569 186.884 684.326L186.808 684.403Z" fill="#F79191"/>
<path d="M164.339 696.94C164.657 696.413 165.08 695.957 165.581 695.599C166.082 695.241 166.65 694.989 167.252 694.858C167.853 694.727 168.475 694.721 169.079 694.839C169.684 694.957 170.257 695.197 170.765 695.545C171.274 695.892 171.705 696.34 172.035 696.86C172.364 697.38 172.583 697.962 172.68 698.57C172.776 699.178 172.748 699.799 172.596 700.396C172.444 700.992 172.172 701.551 171.797 702.039L151.955 730.91C151.637 731.437 151.214 731.894 150.713 732.251C150.213 732.609 149.644 732.862 149.042 732.992C148.441 733.123 147.819 733.129 147.215 733.011C146.61 732.893 146.037 732.653 145.529 732.305C145.021 731.958 144.589 731.51 144.259 730.99C143.93 730.47 143.711 729.888 143.614 729.28C143.518 728.672 143.546 728.051 143.698 727.454C143.85 726.858 144.122 726.299 144.498 725.811L164.339 696.94Z" fill="white"/>
<path d="M187.265 701.925C187.585 701.421 188.001 700.985 188.489 700.643C188.977 700.3 189.528 700.056 190.11 699.927C190.692 699.797 191.294 699.783 191.881 699.885C192.469 699.988 193.03 700.205 193.534 700.525C194.037 700.845 194.473 701.261 194.816 701.749C195.159 702.237 195.402 702.788 195.532 703.37C195.662 703.952 195.676 704.554 195.573 705.141C195.471 705.729 195.253 706.29 194.933 706.794L173.616 739.959C173.296 740.463 172.88 740.898 172.392 741.241C171.904 741.584 171.353 741.827 170.771 741.957C170.189 742.087 169.587 742.101 168.999 741.998C168.412 741.896 167.85 741.678 167.347 741.358C166.843 741.039 166.408 740.623 166.065 740.135C165.722 739.647 165.479 739.096 165.349 738.514C165.219 737.932 165.205 737.33 165.308 736.742C165.41 736.155 165.628 735.593 165.947 735.09L187.265 701.925V701.925Z" fill="white"/>
<path d="M212.781 707.006C213.134 706.527 213.577 706.123 214.086 705.816C214.594 705.509 215.158 705.305 215.746 705.216C216.333 705.127 216.933 705.155 217.509 705.297C218.086 705.44 218.629 705.695 219.108 706.047C219.586 706.399 219.99 706.843 220.297 707.351C220.604 707.86 220.808 708.424 220.897 709.012C220.986 709.599 220.958 710.198 220.816 710.775C220.673 711.352 220.419 711.895 220.066 712.373L193.956 747.743C193.603 748.221 193.16 748.626 192.651 748.933C192.143 749.24 191.579 749.444 190.991 749.533C190.404 749.622 189.804 749.594 189.228 749.451C188.651 749.309 188.108 749.054 187.629 748.702C187.151 748.349 186.747 747.906 186.44 747.397C186.133 746.889 185.929 746.324 185.84 745.737C185.751 745.15 185.778 744.55 185.921 743.974C186.064 743.397 186.318 742.854 186.671 742.375L212.781 707.006V707.006Z" fill="white"/>
<path fill-rule="evenodd" clip-rule="evenodd" d="M667.587 684.461C627.06 688.199 595.64 706.795 597.422 726.004C599.205 745.213 633.482 757.712 674.105 753.955C714.727 750.197 746.052 731.602 744.289 712.412C742.525 693.222 708.209 680.704 667.606 684.461H667.587Z" fill="#F79191"/>
<path d="M690.055 697.077C689.35 696.161 688.321 695.55 687.179 695.368C686.038 695.187 684.87 695.45 683.916 696.102C682.962 696.755 682.294 697.747 682.049 698.877C681.804 700.006 682 701.187 682.597 702.176L702.439 731.047C702.757 731.574 703.18 732.03 703.681 732.388C704.181 732.746 704.75 732.998 705.352 733.129C705.953 733.26 706.575 733.266 707.179 733.148C707.783 733.03 708.357 732.79 708.865 732.442C709.373 732.095 709.805 731.647 710.135 731.127C710.464 730.607 710.683 730.025 710.78 729.417C710.876 728.809 710.848 728.188 710.696 727.591C710.544 726.995 710.272 726.435 709.896 725.948L690.055 697.077Z" fill="white"/>
<path d="M667.127 701.982C666.482 700.965 665.458 700.247 664.283 699.984C663.107 699.722 661.875 699.937 660.859 700.583C659.842 701.228 659.123 702.252 658.861 703.427C658.598 704.603 658.813 705.835 659.459 706.852L680.777 740.017C681.423 741.033 682.446 741.752 683.621 742.015C684.797 742.277 686.029 742.062 687.046 741.416C688.063 740.77 688.781 739.747 689.044 738.572C689.306 737.396 689.091 736.164 688.445 735.147L667.127 701.982V701.982Z" fill="white"/>
<path d="M641.611 707.064C641.259 706.585 640.816 706.181 640.307 705.874C639.798 705.567 639.234 705.363 638.647 705.274C638.059 705.185 637.46 705.213 636.883 705.355C636.306 705.498 635.763 705.753 635.285 706.105C634.807 706.458 634.402 706.901 634.095 707.409C633.788 707.918 633.584 708.482 633.495 709.07C633.406 709.657 633.434 710.256 633.577 710.833C633.719 711.41 633.974 711.953 634.326 712.431L660.437 747.801C660.775 748.313 661.213 748.75 661.725 749.087C662.237 749.424 662.812 749.653 663.416 749.761C664.019 749.868 664.638 749.853 665.235 749.714C665.832 749.575 666.395 749.317 666.889 748.954C667.383 748.591 667.798 748.132 668.109 747.604C668.42 747.076 668.621 746.49 668.699 745.882C668.777 745.274 668.73 744.656 668.562 744.067C668.394 743.477 668.108 742.928 667.721 742.453L641.611 707.064V707.064Z" fill="white"/>
<path fill-rule="evenodd" clip-rule="evenodd" d="M158.97 892.923C158.97 892.923 321.92 1021.12 723.544 947.099L740.798 987.07C740.798 987.07 343.851 1071.84 136.694 929.558L158.97 892.923Z" fill="black"/>
</g>
</svg>
